<?xml version="1.0" encoding="UTF-8" standalone="no"?>
<!-- Created with Inkscape (http://www.inkscape.org/) -->

<svg version="1.1" id="svg2" width="666.66669" height="666.66669" viewBox="0 0 666.66669 666.66669"
   sodipodi:docname="163728-OVHR7N-934.eps" xmlns:inkscape="http://www.inkscape.org/namespaces/inkscape"
   xmlns:sodipodi="http://sodipodi.sourceforge.net/DTD/sodipodi-0.dtd" xmlns="http://www.w3.org/2000/svg"
   xmlns:svg="http://www.w3.org/2000/svg">

   <g id="g8" inkscape:groupmode="layer" inkscape:label="ink_ext_XXXXXX"
      transform="matrix(1.3333333,0,0,-1.3333333,0,666.66667)">
      <g id="g10" transform="scale(0.1)">


         <path fill="aqua"
            d="m 2039.98,3723.79 c -208.36,0 -377.88,-169.52 -377.88,-377.88 0,-208.37 169.52,-377.88 377.88,-377.88 208.37,0 377.89,169.51 377.89,377.88 0,208.36 -169.52,377.88 -377.89,377.88 z m 0,-795.76 c -230.42,0 -417.88,187.46 -417.88,417.88 0,230.42 187.46,417.88 417.88,417.88 230.42,0 417.89,-187.46 417.89,-417.88 0,-230.42 -187.47,-417.88 -417.89,-417.88"
            id="path22" />
         <path fill="aqua"
            d="m 2039.98,3714.36 c -203.16,0 -368.45,-165.29 -368.45,-368.45 0,-203.17 165.29,-368.46 368.45,-368.46 203.17,0 368.46,165.29 368.46,368.46 0,203.16 -165.29,368.45 -368.46,368.45 z m 0,-756.91 c -214.19,0 -388.45,174.26 -388.45,388.46 0,214.19 174.26,388.45 388.45,388.45 214.2,0 388.46,-174.26 388.46,-388.45 0,-214.2 -174.26,-388.46 -388.46,-388.46"
            id="path24" />
         <path fill="#1eff00" d="m 2044.98,3345.91 h -10 v 378.45 h 10 v -378.45" id="path26" />
         <path fill="#1eff00" d="m 2014.14,3347.61 -9.87,1.63 61.56,373.41 9.87,-1.63 -61.56,-373.41" id="path28" />
         <path fill="#1eff00" d="m 2044.6,3343.99 -9.23,3.83 144.82,349.64 9.24,-3.82 -144.83,-349.65" id="path30" />
         <path fill="#1eff00" d="m 2016.76,3357.37 -8.5,5.28 199.78,321.44 8.5,-5.29 -199.78,-321.43" id="path32" />
         <path fill="#1eff00" d="m 2043.52,3342.37 -7.07,7.07 267.61,267.61 7.07,-7.07 -267.61,-267.61" id="path34" />
         <path fill="#1eff00" d="m 2022.92,3365.39 -5.83,8.13 307.57,220.51 5.83,-8.13 -307.57,-220.51" id="path36" />
         <path fill="#1eff00" d="m 2041.9,3341.29 -3.83,9.24 349.65,144.83 3.83,-9.24 -349.65,-144.83" id="path38" />
         <path fill="#1eff00" d="m 2031.67,3370.44 -2.27,9.74 368.54,86.02 2.28,-9.74 -368.55,-86.02" id="path40" />
         <path fill="#1eff00" d="m 2418.44,3340.91 h -378.46 v 10 h 378.46 v -10" id="path42" />
         <path fill="#1eff00" d="m 2415.1,3310.19 -373.41,61.57 1.63,9.86 373.41,-61.56 -1.63,-9.87" id="path44" />
         <path fill="#1eff00" d="m 2387.72,3196.46 -349.65,144.83 3.83,9.24 349.65,-144.83 -3.83,-9.24" id="path46" />
         <path fill="#1eff00" d="m 2372.88,3169.35 -321.43,199.78 5.29,8.5 321.42,-199.78 -5.28,-8.5" id="path48" />
         <path fill="#1eff00" d="m 2304.06,3074.76 -267.61,267.61 7.07,7.07 267.61,-267.61 -7.07,-7.07" id="path50" />
         <path fill="#1eff00" d="m 2279.98,3055.4 -220.51,307.58 8.13,5.83 220.51,-307.58 -8.13,-5.83" id="path52" />
         <path fill="#1eff00" d="m 2180.19,2994.34 -144.82,349.65 9.23,3.83 144.83,-349.65 -9.24,-3.83" id="path54" />
         <path fill="#1eff00" d="m 2150.54,2985.67 -86.02,368.55 9.74,2.28 86.02,-368.55 -9.74,-2.28" id="path56" />
         <path fill="#1eff00" d="m 2044.98,2967.45 h -10 v 378.46 h 10 v -378.46" id="path58" />
         <path fill="#1eff00" d="m 2014.14,2969.16 -9.87,1.63 61.56,373.41 9.87,-1.63 -61.56,-373.41" id="path60" />
         <path fill="#1eff00" d="m 1899.77,2994.34 -9.23,3.83 144.83,349.65 9.23,-3.83 -144.83,-349.65" id="path62" />
         <path fill="#1eff00" d="m 1871.93,3007.73 -8.49,5.28 199.77,321.43 8.5,-5.28 -199.78,-321.43" id="path64" />
         <path fill="#1eff00" d="m 1775.91,3074.76 -7.07,7.07 267.61,267.61 7.07,-7.07 -267.61,-267.61" id="path66" />
         <path fill="#1eff00" d="m 1755.31,3097.79 -5.83,8.12 307.57,220.51 5.84,-8.13 -307.58,-220.5" id="path68" />
         <path fill="#1eff00" d="m 1692.26,3196.46 -3.83,9.24 349.64,144.83 3.83,-9.24 -349.64,-144.83" id="path70" />
         <path fill="#1eff00" d="m 1682.03,3225.61 -2.28,9.74 368.55,86.02 2.28,-9.74 -368.55,-86.02" id="path72" />
         <path fill="#1eff00" d="m 2039.98,3340.91 h -378.45 v 10 h 378.45 v -10" id="path74" />
         <path fill="#1eff00" d="m 2036.65,3310.19 -373.41,61.57 1.63,9.86 373.41,-61.56 -1.63,-9.87" id="path76" />
         <path fill="#1eff00" d="m 2038.07,3341.29 -349.64,144.83 3.83,9.24 349.64,-144.83 -3.83,-9.24" id="path78" />
         <path fill="#1eff00" d="m 2023.24,3314.18 -321.43,199.78 5.28,8.49 321.43,-199.77 -5.28,-8.5" id="path80" />
         <path fill="#1eff00" d="m 2036.45,3342.37 -267.61,267.61 7.07,7.07 267.61,-267.61 -7.07,-7.07" id="path82" />
         <path fill="#1eff00" d="m 2012.37,3323.01 -220.51,307.57 8.13,5.83 220.51,-307.57 -8.13,-5.83" id="path84" />
         <path fill="#1eff00" d="m 2035.37,3343.99 -144.83,349.65 9.23,3.82 144.83,-349.64 -9.23,-3.83" id="path86" />
         <path fill="#1eff00" d="m 2005.71,3335.32 -86.02,368.55 9.74,2.27 86.02,-368.55 -9.74,-2.27" id="path88" />
         <path fill="#1eff00" d="m 2035.01,3345.39 -38.67,376.51 9.95,1.02 38.67,-376.5 -9.95,-1.03" id="path90" />
         <path fill="#1eff00" d="m 2035.59,3343.53 -179.81,333.05 8.8,4.75 179.8,-333.05 -8.79,-4.75" id="path92" />
         <path fill="#1eff00" d="m 2036.83,3342.03 -293.57,238.89 6.31,7.75 293.57,-238.89 -6.31,-7.75" id="path94" />
         <path fill="#1eff00" d="m 2038.55,3341.12 -362.64,108.36 2.86,9.58 362.65,-108.36 -2.87,-9.58" id="path96" />
         <path fill="#1eff00" d="m 1663.99,3302.26 -1.02,9.96 376.5,38.66 1.03,-9.95 -376.51,-38.67" id="path98" />
         <path fill="#1eff00" d="m 1709.31,3161.7 -4.75,8.8 333.05,179.81 4.75,-8.8 -333.05,-179.81" id="path100" />
         <path fill="#1eff00" d="m 1804.97,3049.18 -7.75,6.31 238.89,293.57 7.75,-6.31 -238.89,-293.57" id="path102" />
         <path fill="#1eff00" d="m 1936.42,2981.83 -9.58,2.87 108.35,362.64 9.58,-2.86 -108.35,-362.65" id="path104" />
         <path fill="#1eff00" d="m 2073.68,2968.89 -38.67,376.5 9.95,1.03 38.67,-376.5 -9.95,-1.03" id="path106" />
         <path fill="#1eff00" d="m 2215.39,3010.49 -179.8,333.04 8.79,4.75 179.81,-333.05 -8.8,-4.74" id="path108" />
         <path fill="#1eff00" d="m 2330.4,3103.14 -293.57,238.89 6.31,7.75 293.57,-238.88 -6.31,-7.76" id="path110" />
         <path fill="#1eff00" d="m 2401.2,3232.76 -362.65,108.36 2.87,9.58 362.64,-108.36 -2.86,-9.58" id="path112" />
         <path fill="#1eff00" d="m 2040.5,3340.93 -1.03,9.95 376.51,38.67 1.02,-9.95 -376.5,-38.67" id="path114" />
         <path fill="#1eff00" d="m 2042.36,3341.51 -4.75,8.8 333.05,179.8 4.74,-8.8 -333.04,-179.8" id="path116" />
         <path fill="#1eff00" d="m 2043.86,3342.75 -7.75,6.31 238.88,293.57 7.76,-6.31 -238.89,-293.57" id="path118" />
         <path fill="#1eff00" d="m 2044.77,3344.48 -9.58,2.86 108.36,362.64 9.58,-2.86 -108.36,-362.64" id="path120" />
         <path fill="#eeff00"
            d="m 2001.32,3345.91 c 0,-21.36 17.31,-38.67 38.67,-38.67 21.35,0 38.66,17.31 38.66,38.67 0,21.35 -17.31,38.66 -38.66,38.66 -21.36,0 -38.67,-17.31 -38.67,-38.66"
            id="path122" />
         <path fill="#eeff00"
            d="m 2039.98,3379.57 c -18.56,0 -33.66,-15.1 -33.66,-33.66 0,-18.57 15.1,-33.67 33.66,-33.67 18.57,0 33.67,15.1 33.67,33.67 0,18.56 -15.1,33.66 -33.67,33.66 z m 0,-77.33 c -24.07,0 -43.66,19.59 -43.66,43.67 0,24.07 19.59,43.66 43.66,43.66 24.08,0 43.67,-19.59 43.67,-43.66 0,-24.08 -19.59,-43.67 -43.67,-43.67"
            id="path124" />
         <path
            d="m 833.145,3723.79 c -208.364,0 -377.883,-169.52 -377.883,-377.88 0,-208.37 169.519,-377.88 377.883,-377.88 208.365,0 377.875,169.51 377.875,377.88 0,208.36 -169.51,377.88 -377.875,377.88 z m 0,-795.76 c -230.422,0 -417.883,187.46 -417.883,417.88 0,230.42 187.461,417.88 417.883,417.88 230.415,0 417.875,-187.46 417.875,-417.88 0,-230.42 -187.46,-417.88 -417.875,-417.88"
            id="path126" />
         <path
            d="m 833.145,3714.36 c -203.165,0 -368.454,-165.29 -368.454,-368.45 0,-203.17 165.289,-368.46 368.454,-368.46 203.165,0 368.455,165.29 368.455,368.46 0,203.16 -165.29,368.45 -368.455,368.45 z m 0,-756.91 c -214.196,0 -388.454,174.26 -388.454,388.46 0,214.19 174.258,388.45 388.454,388.45 214.195,0 388.455,-174.26 388.455,-388.45 0,-214.2 -174.26,-388.46 -388.455,-388.46"
            id="path128" />
         <path d="m 838.145,3345.91 h -10 v 378.45 h 10 v -378.45" id="path130" />
         <path d="m 807.297,3347.61 -9.867,1.63 61.562,373.41 9.863,-1.63 -61.558,-373.41" id="path132" />
         <path d="m 837.762,3343.99 -9.239,3.83 144.832,349.64 9.239,-3.82 -144.832,-349.65" id="path134" />
         <path d="m 809.918,3357.37 -8.496,5.28 199.778,321.44 8.5,-5.29 -199.782,-321.43" id="path136" />
         <path d="m 836.68,3342.37 -7.071,7.07 267.611,267.61 7.07,-7.07 -267.61,-267.61" id="path138" />
         <path d="m 816.074,3365.39 -5.832,8.13 307.578,220.51 5.83,-8.13 -307.576,-220.51" id="path140" />
         <path d="m 835.059,3341.29 -3.829,9.24 349.65,144.83 3.83,-9.24 -349.651,-144.83" id="path142" />
         <path d="m 824.828,3370.44 -2.273,9.74 368.545,86.02 2.28,-9.74 -368.552,-86.02" id="path144" />
         <path d="M 1211.6,3340.91 H 833.145 v 10 H 1211.6 v -10" id="path146" />
         <path d="m 1208.26,3310.19 -373.412,61.57 1.632,9.86 373.41,-61.56 -1.63,-9.87" id="path148" />
         <path d="m 1180.88,3196.46 -349.65,144.83 3.829,9.24 349.651,-144.83 -3.83,-9.24" id="path150" />
         <path d="m 1166.04,3169.35 -321.431,199.78 5.282,8.5 321.429,-199.78 -5.28,-8.5" id="path152" />
         <path d="m 1097.22,3074.76 -267.611,267.61 7.071,7.07 267.61,-267.61 -7.07,-7.07" id="path154" />
         <path d="m 1073.14,3055.4 -220.507,307.58 8.125,5.83 220.502,-307.58 -8.12,-5.83" id="path156" />
         <path d="m 973.355,2994.34 -144.832,349.65 9.239,3.83 144.832,-349.65 -9.239,-3.83" id="path158" />
         <path d="m 943.699,2985.67 -86.019,368.55 9.738,2.28 86.02,-368.55 -9.739,-2.28" id="path160" />
         <path d="m 838.145,2967.45 h -10 v 378.46 h 10 v -378.46" id="path162" />
         <path d="m 807.297,2969.16 -9.867,1.63 61.562,373.41 9.863,-1.63 -61.558,-373.41" id="path164" />
         <path d="m 692.934,2994.34 -9.239,3.83 144.828,349.65 9.239,-3.83 -144.828,-349.65" id="path166" />
         <path d="m 665.09,3007.73 -8.496,5.28 199.777,321.43 8.496,-5.28 -199.777,-321.43" id="path168" />
         <path d="m 569.07,3074.76 -7.066,7.07 267.605,267.61 7.071,-7.07 -267.61,-267.61" id="path170" />
         <path d="m 548.469,3097.79 -5.832,8.12 307.578,220.51 5.832,-8.13 -307.578,-220.5" id="path172" />
         <path d="m 485.41,3196.46 -3.828,9.24 349.648,144.83 3.829,-9.24 -349.649,-144.83" id="path174" />
         <path d="m 475.184,3225.61 -2.274,9.74 368.551,86.02 2.273,-9.74 -368.55,-86.02" id="path176" />
         <path d="M 833.145,3340.91 H 454.691 v 10 h 378.454 v -10" id="path178" />
         <path d="m 829.809,3310.19 -373.414,61.57 1.632,9.86 373.414,-61.56 -1.632,-9.87" id="path180" />
         <path d="m 831.23,3341.29 -349.648,144.83 3.828,9.24 349.649,-144.83 -3.829,-9.24" id="path182" />
         <path d="m 816.395,3314.18 -321.43,199.78 5.285,8.49 321.43,-199.77 -5.285,-8.5" id="path184" />
         <path d="m 829.609,3342.37 -267.605,267.61 7.066,7.07 267.61,-267.61 -7.071,-7.07" id="path186" />
         <path d="m 805.531,3323.01 -220.508,307.57 8.125,5.83 220.508,-307.57 -8.125,-5.83" id="path188" />
         <path d="m 828.523,3343.99 -144.828,349.65 9.239,3.82 144.828,-349.64 -9.239,-3.83" id="path190" />
         <path d="m 798.871,3335.32 -86.019,368.55 9.738,2.27 86.019,-368.55 -9.738,-2.27" id="path192" />
         <path d="m 828.168,3345.39 -38.664,376.51 9.949,1.02 38.668,-376.5 -9.953,-1.03" id="path194" />
         <path d="m 828.746,3343.53 -179.805,333.05 8.797,4.75 179.805,-333.05 -8.797,-4.75" id="path196" />
         <path d="m 829.988,3342.03 -293.566,238.89 6.308,7.75 293.571,-238.89 -6.313,-7.75" id="path198" />
         <path d="m 831.715,3341.12 -362.645,108.36 2.864,9.58 362.64,-108.36 -2.859,-9.58" id="path200" />
         <path d="m 457.152,3302.26 -1.023,9.96 376.504,38.66 1.023,-9.95 -376.504,-38.67" id="path202" />
         <path d="m 502.469,3161.7 -4.746,8.8 333.047,179.81 4.746,-8.8 -333.047,-179.81" id="path204" />
         <path d="m 598.137,3049.18 -7.754,6.31 238.883,293.57 7.754,-6.31 -238.883,-293.57" id="path206" />
         <path d="m 729.574,2981.83 -9.578,2.87 108.359,362.64 9.579,-2.86 -108.36,-362.65" id="path208" />
         <path d="m 866.836,2968.89 -38.668,376.5 9.953,1.03 38.664,-376.5 -9.949,-1.03" id="path210" />
         <path d="m 1008.55,3010.49 -179.804,333.04 8.797,4.75 179.807,-333.05 -8.8,-4.74" id="path212" />
         <path d="m 1123.56,3103.14 -293.572,238.89 6.313,7.75 293.569,-238.88 -6.31,-7.76" id="path214" />
         <path d="m 1194.35,3232.76 -362.635,108.36 2.859,9.58 362.646,-108.36 -2.87,-9.58" id="path216" />
         <path d="m 833.656,3340.93 -1.023,9.95 376.507,38.67 1.02,-9.95 -376.504,-38.67" id="path218" />
         <path d="m 835.516,3341.51 -4.746,8.8 333.05,179.8 4.74,-8.8 -333.044,-179.8" id="path220" />
         <path d="m 837.02,3342.75 -7.754,6.31 238.884,293.57 7.76,-6.31 -238.89,-293.57" id="path222" />
         <path d="m 837.934,3344.48 -9.579,2.86 108.36,362.64 9.578,-2.86 -108.359,-362.64" id="path224" />
         <path  fill="#eeff00"
            d="m 794.477,3345.91 c 0,-21.36 17.312,-38.67 38.668,-38.67 21.355,0 38.664,17.31 38.664,38.67 0,21.35 -17.309,38.66 -38.664,38.66 -21.356,0 -38.668,-17.31 -38.668,-38.66"
            id="path226" />
         <path  fill="#eeff00"
            d="m 833.145,3379.57 c -18.567,0 -33.668,-15.1 -33.668,-33.66 0,-18.57 15.101,-33.67 33.668,-33.67 18.566,0 33.668,15.1 33.668,33.67 0,18.56 -15.102,33.66 -33.668,33.66 z m 0,-77.33 c -24.079,0 -43.668,19.59 -43.668,43.67 0,24.07 19.589,43.66 43.668,43.66 24.078,0 43.668,-19.59 43.668,-43.66 0,-24.08 -19.59,-43.67 -43.668,-43.67"
            id="path228" />
         <path  fill="#eeff00"
            d="m 833.137,3330.95 c -2.145,0 -4.321,0.46 -6.383,1.44 -7.496,3.53 -10.707,12.46 -7.18,19.96 l 295.556,627.33 c 3.53,7.5 12.48,10.68 19.96,7.18 7.49,-3.53 10.71,-12.47 7.17,-19.96 L 846.715,3339.56 c -2.559,-5.43 -7.953,-8.61 -13.578,-8.61"
            id="path230" />
         <path  fill="#eeff00"
            d="m 1332.03,3252.28 c -6.52,0 -12.52,4.28 -14.41,10.85 l -203.34,706.01 c -2.29,7.96 2.3,16.27 10.27,18.56 7.95,2.3 16.26,-2.3 18.56,-10.26 l 203.33,-706.01 c 2.3,-7.95 -2.3,-16.27 -10.26,-18.56 -1.39,-0.4 -2.78,-0.59 -4.15,-0.59"
            id="path232" />
         <path  fill="#eeff00"
            d="m 2039.88,3330.9 c -6.77,0 -12.91,4.61 -14.57,11.48 l -166.43,687.38 c -1.95,8.05 3,16.16 11.05,18.11 8.05,1.98 16.16,-3 18.11,-11.05 l 166.43,-687.38 c 1.95,-8.05 -3,-16.16 -11.05,-18.11 -1.19,-0.29 -2.38,-0.43 -3.54,-0.43"
            id="path234" />
         <path  fill="#eeff00"
            d="m 1332.03,3252.28 c -3.61,0 -7.22,1.29 -10.1,3.91 -6.12,5.58 -6.57,15.06 -0.99,21.19 l 574.15,630.87 c 5.57,6.13 15.06,6.58 21.19,0.99 6.12,-5.57 6.57,-15.06 0.99,-21.19 l -574.15,-630.86 c -2.95,-3.26 -7.02,-4.91 -11.09,-4.91"
            id="path236" />
         <path  fill="#eeff00"
            d="m 1259.04,3510.73 c -5.53,0 -10,4.48 -10,10 0,5.52 4.47,10 10,10 123.94,0 526.59,164.63 611.15,478.79 1.44,5.33 6.93,8.48 12.26,7.06 5.33,-1.44 8.49,-6.92 7.06,-12.26 -47.77,-177.44 -187.79,-297.94 -296.83,-367.78 -128.97,-82.59 -265.47,-125.81 -333.64,-125.81"
            id="path238" />
         <path 
            d="m 1373.91,3267.28 c 0,-23.12 -18.75,-41.87 -41.88,-41.87 -23.13,0 -41.87,18.75 -41.87,41.87 0,23.13 18.74,41.88 41.87,41.88 23.13,0 41.88,-18.75 41.88,-41.88"
            id="path240" />
         <path fill="#eeff00"
            d="m 1896.6,4033.29 c 0,-12.78 -10.36,-23.14 -23.14,-23.14 -12.78,0 -23.13,10.36 -23.13,23.14 0,12.78 10.35,23.14 23.13,23.14 12.78,0 23.14,-10.36 23.14,-23.14"
            id="path242" />
         <path 
            d="m 974.227,4029.75 c 4.019,24.87 58.483,19.47 107.723,0 49.24,-19.46 106.5,2.29 152.3,0 45.81,-2.29 69.86,-35.5 75.58,-48.09 5.73,-12.6 -18.32,-27.49 -54.96,-17.18 -36.65,10.3 -115.66,-0.03 -153.45,-3.45 -37.8,-3.42 -143.303,-30.91 -127.193,68.72"
            id="path244" />
         <path
            d="m 1690.77,3976.2 c -5.31,0 -9.73,4.18 -9.98,9.54 -0.25,5.52 4.01,10.2 9.53,10.45 90.62,4.2 173.14,21.88 173.14,37.1 -5.04,11.46 -77.33,18.18 -154.66,14.18 -5.45,-0.31 -10.23,3.95 -10.5,9.47 -0.29,5.51 3.95,10.22 9.46,10.5 23.57,1.23 142.41,6.04 168.81,-19.03 5.69,-5.41 6.89,-11.2 6.89,-15.12 0,-43.5 -134.42,-54.4 -192.22,-57.08 -0.16,0 -0.31,-0.01 -0.47,-0.01"
            id="path246" />
         <path
            d="m 1263.87,3346.19 c -2.74,0 -4.97,2.2 -5,4.95 -2.79,231.88 -193.77,420.52 -425.725,420.52 -198.911,0 -373.887,-140.86 -416.051,-334.94 -0.586,-2.7 -3.25,-4.4 -5.946,-3.83 -2.703,0.59 -4.414,3.26 -3.828,5.95 43.157,198.65 222.239,342.82 425.825,342.82 237.405,0 432.865,-193.08 435.725,-430.41 0.03,-2.76 -2.18,-5.02 -4.94,-5.06 -0.02,0 -0.04,0 -0.06,0"
            id="path248" />
         <path
            d="m 1636.69,3190.88 c -2.03,0 -3.94,1.24 -4.69,3.25 -18.05,48.51 -27.2,99.57 -27.2,151.78 0,201.99 142.86,380.59 339.68,424.66 2.74,0.61 5.38,-1.09 5.97,-3.78 0.61,-2.69 -1.09,-5.37 -3.78,-5.97 -192.3,-43.06 -331.87,-217.56 -331.87,-414.91 0,-51.02 8.94,-100.91 26.58,-148.29 0.96,-2.59 -0.36,-5.46 -2.95,-6.43 -0.57,-0.21 -1.16,-0.31 -1.74,-0.31"
            id="path250" />
         <path d="m 1189.39,3938.29 h -92.36 v 47.91 h 106.67 v -33.6 c 0,-7.9 -6.41,-14.31 -14.31,-14.31"
            id="path252" />
         <path
            d="m 3968.86,3476.68 c -5.31,0 -10.46,2.82 -13.18,7.81 l -112.56,206.24 c -3.96,7.28 -1.29,16.39 5.99,20.36 7.29,3.97 16.38,1.29 20.35,-5.98 l 112.56,-206.24 c 3.96,-7.28 1.28,-16.39 -5.99,-20.36 -2.28,-1.24 -4.74,-1.83 -7.17,-1.83"
            id="path254" />
         <path
            d="m 3906.39,3687.59 h -105.3 c -8.28,0 -15,6.72 -15,15 0,8.29 6.72,15 15,15 h 105.3 c 8.29,0 15,-6.71 15,-15 0,-8.28 -6.71,-15 -15,-15"
            id="path256" />
         <path
            d="m 3968.85,4011.68 c -286.73,0 -520,-233.27 -520,-520 0,-286.73 233.27,-520 520,-520 286.73,0 520,233.27 520,520 0,286.73 -233.27,520 -520,520 z m 0,-1080 c -308.79,0 -560,251.22 -560,560 0,308.78 251.21,560 560,560 308.78,0 560,-251.22 560,-560 0,-308.78 -251.22,-560 -560,-560"
            id="path258" />
         <path
            d="m 3968.85,3995.31 c -277.71,0 -503.64,-225.92 -503.64,-503.63 0,-277.7 225.93,-503.63 503.64,-503.63 277.7,0 503.63,225.93 503.63,503.63 0,277.71 -225.93,503.63 -503.63,503.63 z m 0,-1027.26 c -288.73,0 -523.64,234.9 -523.64,523.63 0,288.73 234.91,523.63 523.64,523.63 288.73,0 523.63,-234.9 523.63,-523.63 0,-288.73 -234.9,-523.63 -523.63,-523.63"
            id="path260" />
         <path d="m 3973.85,3491.68 h -10 v 513.63 h 10 v -513.63" id="path262" />
         <path d="m 4005.69,3494.28 -83.55,506.79 9.86,1.64 83.56,-506.8 -9.87,-1.63" id="path264" />
         <path d="m 3964.23,3489.77 -196.56,474.53 9.24,3.83 196.56,-474.54 -9.24,-3.82" id="path266" />
         <path d="m 4001.89,3508.18 -271.14,436.24 8.5,5.29 271.13,-436.24 -8.49,-5.29" id="path268" />
         <path d="m 3965.31,3488.15 -363.19,363.19 7.07,7.07 363.19,-363.19 -7.07,-7.07" id="path270" />
         <path d="m 3993.06,3519.58 -417.45,299.27 5.83,8.12 417.45,-299.27 -5.83,-8.12" id="path272" />
         <path d="m 3966.93,3487.06 -474.53,196.56 3.82,9.24 474.54,-196.56 -3.83,-9.24" id="path274" />
         <path d="m 3980.54,3526.71 -500.19,116.75 2.27,9.74 500.19,-116.75 -2.27,-9.74" id="path276" />
         <path d="m 3968.85,3486.68 h -513.64 v 10 h 513.64 v -10" id="path278" />
         <path d="m 3459.45,3444.97 -1.63,9.86 506.79,83.56 1.63,-9.86 -506.79,-83.56" id="path280" />
         <path d="m 3496.22,3290.5 -3.82,9.24 474.53,196.56 3.83,-9.24 -474.54,-196.56" id="path282" />
         <path d="m 3516.1,3253.58 -5.28,8.5 436.24,271.13 5.28,-8.49 -436.24,-271.14" id="path284" />
         <path d="m 3609.19,3124.95 -7.07,7.07 363.19,363.2 7.07,-7.07 -363.19,-363.2" id="path286" />
         <path d="m 3641.67,3098.45 -8.12,5.83 299.28,417.43 8.12,-5.83 -299.28,-417.43" id="path288" />
         <path d="m 3776.91,3015.23 -9.24,3.83 196.56,474.53 9.24,-3.82 -196.56,-474.54" id="path290" />
         <path d="m 3817.06,3003.18 -9.73,2.27 116.74,500.2 9.74,-2.28 -116.75,-500.19" id="path292" />
         <path d="m 3973.85,2978.05 h -10 v 513.63 h 10 v -513.63" id="path294" />
         <path d="m 4005.69,2980.65 -83.55,506.79 9.86,1.63 83.56,-506.79 -9.87,-1.63" id="path296" />
         <path d="m 4160.79,3015.23 -196.56,474.54 9.24,3.82 196.55,-474.53 -9.23,-3.83" id="path298" />
         <path d="m 4198.45,3033.65 -271.14,436.24 8.49,5.28 271.14,-436.24 -8.49,-5.28" id="path300" />
         <path d="m 4328.5,3124.95 -363.19,363.2 7.07,7.07 363.2,-363.2 -7.08,-7.07" id="path302" />
         <path d="m 4356.25,3156.38 -417.44,299.27 5.83,8.13 417.44,-299.27 -5.83,-8.13" id="path304" />
         <path d="m 4441.47,3290.5 -474.54,196.56 3.83,9.24 474.54,-196.56 -3.83,-9.24" id="path306" />
         <path d="m 4455.07,3330.16 -500.19,116.74 2.28,9.74 500.19,-116.75 -2.28,-9.73" id="path308" />
         <path d="m 4482.48,3486.68 h -513.63 v 10 h 513.63 v -10" id="path310" />
         <path d="m 3973.08,3444.97 -1.63,9.86 506.79,83.56 1.63,-9.86 -506.79,-83.56" id="path312" />
         <path d="m 3970.76,3487.06 -3.83,9.24 474.54,196.56 3.83,-9.24 -474.54,-196.56" id="path314" />
         <path d="m 3990.63,3450.14 -5.28,8.5 436.24,271.13 5.28,-8.5 -436.24,-271.13" id="path316" />
         <path d="m 3972.38,3488.15 -7.07,7.07 363.19,363.19 7.08,-7.07 -363.2,-363.19" id="path318" />
         <path d="m 4004.87,3461.64 -8.13,5.83 299.28,417.44 8.12,-5.83 -299.27,-417.44" id="path320" />
         <path d="m 3973.47,3489.77 -9.24,3.82 196.56,474.54 9.23,-3.83 -196.55,-474.53" id="path322" />
         <path d="m 4013.62,3477.72 -9.73,2.27 116.74,500.19 9.74,-2.28 -116.75,-500.18" id="path324" />
         <path d="m 3973.82,3491.17 -9.95,1.02 52.48,510.99 9.95,-1.03 -52.48,-510.98" id="path326" />
         <path d="m 3973.25,3489.31 -8.8,4.74 244.03,452.01 8.79,-4.75 -244.02,-452" id="path328" />
         <path d="m 3972,3487.8 -6.31,7.76 398.43,324.21 6.31,-7.75 L 3972,3487.8" id="path330" />
         <path d="m 3970.28,3486.89 -2.86,9.58 492.17,147.06 2.86,-9.58 -492.17,-147.06" id="path332" />
         <path d="m 4479.32,3434.22 -510.99,52.48 1.03,9.96 510.99,-52.48 -1.03,-9.96" id="path334" />
         <path d="m 4418.48,3243.25 -452.01,244.03 4.75,8.8 452.01,-244.03 -4.75,-8.8" id="path336" />
         <path d="m 4289.18,3090.1 -324.21,398.43 7.75,6.3 324.22,-398.42 -7.76,-6.31" id="path338" />
         <path d="m 4111.12,2998.08 -147.06,492.17 9.58,2.86 147.06,-492.17 -9.58,-2.86" id="path340" />
         <path d="m 3921.35,2980.18 -9.95,1.03 52.47,510.98 9.95,-1.02 -52.47,-510.99" id="path342" />
         <path d="m 3729.22,3037.3 -8.8,4.75 244.03,452 8.8,-4.74 -244.03,-452.01" id="path344" />
         <path d="m 3573.57,3163.59 -6.31,7.75 398.43,324.22 6.31,-7.76 -398.43,-324.21" id="path346" />
         <path d="m 3478.11,3339.82 -2.86,9.58 492.17,147.07 2.86,-9.58 -492.17,-147.07" id="path348" />
         <path d="m 3968.33,3486.7 -510.98,52.48 1.02,9.95 510.99,-52.47 -1.03,-9.96" id="path350" />
         <path d="m 3966.47,3487.28 -452,244.03 4.74,8.8 452.01,-244.03 -4.75,-8.8" id="path352" />
         <path d="m 3964.97,3488.53 -324.21,398.42 7.75,6.31 324.21,-398.43 -7.75,-6.3" id="path354" />
         <path d="m 3964.06,3490.25 -147.06,492.17 9.58,2.86 147.06,-492.17 -9.58,-2.86" id="path356" />
         <path
            d="m 4021.32,3491.68 c 0,-28.98 -23.49,-52.48 -52.47,-52.48 -28.99,0 -52.48,23.5 -52.48,52.48 0,28.98 23.49,52.48 52.48,52.48 28.98,0 52.47,-23.5 52.47,-52.48"
            id="path358" />
         <path
            d="m 3968.85,3539.16 c -26.18,0 -47.48,-21.3 -47.48,-47.48 0,-26.18 21.3,-47.48 47.48,-47.48 26.17,0 47.47,21.3 47.47,47.48 0,26.18 -21.3,47.48 -47.47,47.48 z m 0,-104.96 c -31.7,0 -57.48,25.79 -57.48,57.48 0,31.69 25.78,57.48 57.48,57.48 31.69,0 57.47,-25.79 57.47,-57.48 0,-31.69 -25.78,-57.48 -57.47,-57.48"
            id="path360" />
         <path
            d="m 3170.82,3403.78 c -122.23,0 -221.68,-99.44 -221.68,-221.68 0,-122.23 99.45,-221.66 221.68,-221.66 122.23,0 221.67,99.43 221.67,221.66 0,122.24 -99.44,221.68 -221.67,221.68 z m 0,-493.34 c -149.8,0 -271.68,121.87 -271.68,271.66 0,149.8 121.88,271.68 271.68,271.68 149.8,0 271.67,-121.88 271.67,-271.68 0,-149.79 -121.87,-271.66 -271.67,-271.66"
            id="path362" />
         <path
            d="m 3170.82,3401.8 c -121.14,0 -219.69,-98.56 -219.69,-219.7 0,-121.13 98.55,-219.69 219.69,-219.69 121.14,0 219.69,98.56 219.69,219.69 0,121.14 -98.55,219.7 -219.69,219.7 z m 0,-459.39 c -132.17,0 -239.69,107.53 -239.69,239.69 0,132.17 107.52,239.7 239.69,239.7 132.17,0 239.69,-107.53 239.69,-239.7 0,-132.16 -107.52,-239.69 -239.69,-239.69"
            id="path364" />
         <path d="m 3175.82,3182.1 h -10 v 229.7 h 10 v -229.7" id="path366" />
         <path d="m 3184.57,3182.82 -37.36,226.63 9.86,1.63 37.36,-226.63 -9.86,-1.63" id="path368" />
         <path d="m 3166.2,3180.19 -87.9,212.21 9.24,3.83 87.9,-212.21 -9.24,-3.83" id="path370" />
         <path d="m 3183.25,3188.03 -121.25,195.08 8.49,5.28 121.25,-195.08 -8.49,-5.28" id="path372" />
         <path d="m 3167.28,3178.57 -162.41,162.42 7.07,7.07 162.41,-162.42 -7.07,-7.07" id="path374" />
         <path d="m 3180.03,3192.33 -186.67,133.84 5.83,8.12 186.67,-133.83 -5.83,-8.13" id="path376" />
         <path d="m 3168.91,3177.49 -212.21,87.9 3.83,9.23 212.2,-87.9 -3.82,-9.23" id="path378" />
         <path d="m 3175.42,3195.08 -223.68,52.21 2.27,9.74 223.68,-52.21 -2.27,-9.74" id="path380" />
         <path d="m 3170.82,3177.1 h -229.69 v 10 h 229.69 v -10" id="path382" />
         <path d="m 2943.47,3158.49 -1.63,9.86 226.64,37.37 1.63,-9.87 -226.64,-37.36" id="path384" />
         <path d="m 2960.53,3089.59 -3.83,9.23 212.21,87.9 3.82,-9.23 -212.2,-87.9" id="path386" />
         <path d="m 2969.81,3073.28 -5.28,8.5 195.08,121.25 5.29,-8.5 -195.09,-121.25" id="path388" />
         <path d="m 3011.94,3016.15 -7.07,7.07 162.41,162.42 7.07,-7.07 -162.41,-162.42" id="path390" />
         <path d="m 3026.76,3004.64 -8.13,5.83 133.83,186.68 8.13,-5.83 -133.83,-186.68" id="path392" />
         <path d="m 3087.54,2967.98 -9.24,3.83 87.9,212.21 9.24,-3.83 -87.9,-212.21" id="path394" />
         <path d="m 3105.63,2963.02 -9.73,2.28 52.2,223.68 9.74,-2.28 -52.21,-223.68" id="path396" />
         <path d="m 3175.82,2952.41 h -10 v 229.69 h 10 v -229.69" id="path398" />
         <path d="m 3184.57,2953.13 -37.36,226.63 9.86,1.63 37.36,-226.63 -9.86,-1.63" id="path400" />
         <path d="m 3254.1,2967.98 -87.9,212.21 9.24,3.83 87.9,-212.21 -9.24,-3.83" id="path402" />
         <path d="m 3271.15,2975.82 -121.25,195.08 8.49,5.29 121.25,-195.09 -8.49,-5.28" id="path404" />
         <path d="m 3329.7,3016.15 -162.42,162.42 7.07,7.07 162.42,-162.42 -7.07,-7.07" id="path406" />
         <path d="m 3342.45,3029.92 -186.67,133.83 5.83,8.13 186.67,-133.84 -5.83,-8.12" id="path408" />
         <path d="m 3381.11,3089.59 -212.2,87.9 3.82,9.23 212.21,-87.9 -3.83,-9.23" id="path410" />
         <path d="m 3387.63,3107.18 -223.69,52.22 2.28,9.73 223.68,-52.21 -2.27,-9.74" id="path412" />
         <path d="m 3400.51,3177.1 h -229.69 v 10 h 229.69 v -10" id="path414" />
         <path d="m 3173.16,3158.49 -1.63,9.86 226.64,37.37 1.63,-9.87 -226.64,-37.36" id="path416" />
         <path d="m 3172.73,3177.49 -3.82,9.23 212.2,87.9 3.83,-9.23 -212.21,-87.9" id="path418" />
         <path d="m 3182.03,3161.18 -5.29,8.5 195.09,121.25 5.28,-8.5 -195.08,-121.25" id="path420" />
         <path d="m 3174.35,3178.57 -7.07,7.07 162.42,162.42 7.07,-7.07 -162.42,-162.42" id="path422" />
         <path d="m 3189.17,3167.06 -8.12,5.83 133.83,186.68 8.13,-5.83 -133.84,-186.68" id="path424" />
         <path d="m 3175.44,3180.19 -9.24,3.83 87.9,212.21 9.24,-3.83 -87.9,-212.21" id="path426" />
         <path d="m 3193.53,3175.23 -9.73,2.28 52.2,223.68 9.74,-2.28 -52.21,-223.68" id="path428" />
         <path d="m 3175.79,3181.59 -9.95,1.03 23.47,228.51 9.95,-1.03 -23.47,-228.51" id="path430" />
         <path d="m 3175.22,3179.73 -8.8,4.75 109.13,202.13 8.79,-4.74 -109.12,-202.14" id="path432" />
         <path d="m 3173.97,3178.23 -6.3,7.75 178.17,144.99 6.31,-7.76 -178.18,-144.98" id="path434" />
         <path d="m 3172.25,3177.31 -2.86,9.59 220.09,65.76 2.86,-9.58 -220.09,-65.77" id="path436" />
         <path d="m 3398.81,3153.66 -228.5,23.47 1.02,9.95 228.51,-23.47 -1.03,-9.95" id="path438" />
         <path d="m 3370.58,3068.58 -202.13,109.13 4.74,8.79 202.14,-109.12 -4.75,-8.8" id="path440" />
         <path d="m 3311.93,3000.78 -144.99,178.17 7.76,6.31 144.98,-178.17 -7.75,-6.31" id="path442" />
         <path d="m 3231.8,2960.58 -65.77,220.09 9.58,2.87 65.77,-220.1 -9.58,-2.86" id="path444" />
         <path d="m 3152.33,2953.09 -9.95,1.02 23.46,228.51 9.95,-1.03 -23.46,-228.5" id="path446" />
         <path d="m 3066.09,2977.6 -8.8,4.74 109.13,202.14 8.8,-4.75 -109.13,-202.13" id="path448" />
         <path d="m 2995.8,3033.24 -6.31,7.76 178.18,144.98 6.3,-7.75 -178.17,-144.99" id="path450" />
         <path d="m 2952.15,3111.55 -2.86,9.58 220.1,65.77 2.86,-9.59 -220.1,-65.76" id="path452" />
         <path d="m 3170.31,3177.13 -228.51,23.47 1.02,9.95 228.51,-23.47 -1.02,-9.95" id="path454" />
         <path d="m 3168.45,3177.71 -202.14,109.13 4.75,8.8 202.13,-109.14 -4.74,-8.79" id="path456" />
         <path d="m 3166.94,3178.95 -144.98,178.17 7.75,6.31 144.99,-178.17 -7.76,-6.31" id="path458" />
         <path d="m 3166.03,3180.67 -65.77,220.1 9.58,2.86 65.77,-220.09 -9.58,-2.87" id="path460" />
         <path
            d="m 3194.29,3182.11 c 0,-12.96 -10.51,-23.47 -23.47,-23.47 -12.96,0 -23.47,10.51 -23.47,23.47 0,12.96 10.51,23.46 23.47,23.46 12.96,0 23.47,-10.5 23.47,-23.46"
            id="path462" />
         <path
            d="m 3170.82,3200.57 c -10.18,0 -18.47,-8.28 -18.47,-18.47 0,-10.18 8.29,-18.46 18.47,-18.46 10.18,0 18.47,8.28 18.47,18.46 0,10.19 -8.29,18.47 -18.47,18.47 z m 0,-46.93 c -15.7,0 -28.47,12.77 -28.47,28.46 0,15.7 12.77,28.47 28.47,28.47 15.7,0 28.47,-12.77 28.47,-28.47 0,-15.69 -12.77,-28.46 -28.47,-28.46"
            id="path464" />
         <path d="m 3983.85,3491.68 h -30 v 731.25 h 30 v -731.25" id="path466" />
         <path
            d="m 3184.89,3171.89 -24.32,17.54 c 20.96,29.07 34.57,62.95 44.08,89.22 26.17,72.29 42.67,149.05 58.62,223.28 5.94,27.63 12.08,56.2 18.64,84.23 21.58,92.11 52.33,198.39 116.79,288.32 115.26,160.81 339.15,260.24 570.58,253.35 l -0.9,-29.99 c -221.42,6.65 -435.69,-87.92 -545.3,-240.84 -61.4,-85.66 -91.05,-188.44 -111.96,-277.69 -6.5,-27.75 -12.61,-56.18 -18.52,-83.68 -16.16,-75.21 -32.87,-152.98 -59.74,-227.19 -10.18,-28.1 -24.82,-64.47 -47.97,-96.55"
            id="path468" />
         <path
            d="m 3875.43,4207.71 c 3.15,14.06 -41.76,-1.46 -71.54,-6.96 -28.73,-5.3 -59.97,-2.59 -86.2,-2.59 -31.86,0 -37.64,-2.32 -37.64,-24.82 0,-7.91 7.63,-25.4 20.15,-15.41 17.02,13.57 72.33,5.85 93.46,0.93 28.42,-6.61 63.73,-31.77 81.77,48.85"
            id="path470" />
         <path
            d="m 3942.52,4090.84 h 52.57 v 93.75 h -52.57 c -14.44,0 -26.15,-11.7 -26.15,-26.14 v -41.46 c 0,-14.44 11.71,-26.15 26.15,-26.15"
            id="path472" />
         <path d="m 3826.76,4163.34 h 110 v 11.25 h -110 v -11.25" id="path474" />
         <path
            d="m 3811.74,4106.47 h -10 v 4.85 c 0,11.8 -9.6,21.4 -21.39,21.4 h -37.19 c -17.32,0 -31.4,14.08 -31.4,31.4 v 6.72 h 10 v -6.72 c 0,-11.8 9.6,-21.4 21.4,-21.4 h 37.19 c 17.31,0 31.39,-14.08 31.39,-31.4 v -4.85"
            id="path476" />
         <path
            d="m 3941.07,4219.28 h 55.56 c 2.78,0 5.03,2.26 5.03,5.03 v 7.13 c 0,2.78 -2.25,5.03 -5.03,5.03 h -55.56 c -2.78,0 -5.04,-2.25 -5.04,-5.03 v -7.13 c 0,-2.77 2.26,-5.03 5.04,-5.03"
            id="path478" />
         <path
            d="m 4082.92,3270.96 c -5.31,0 -10.46,2.83 -13.18,7.82 l -112.55,206.24 c -3.97,7.28 -1.29,16.39 5.98,20.36 7.29,3.96 16.38,1.28 20.35,-5.98 l 112.56,-206.25 c 3.96,-7.27 1.29,-16.38 -5.98,-20.35 -2.29,-1.25 -4.75,-1.84 -7.18,-1.84"
            id="path480" />
         <path
            d="m 4138.11,3266.29 h -105.3 c -8.28,0 -15,6.71 -15,15 0,8.29 6.72,15 15,15 h 105.3 c 8.29,0 15,-6.71 15,-15 0,-8.29 -6.71,-15 -15,-15"
            id="path482" />
         <path
            d="m 1963.86,1360.39 c -2.2,0 -4.43,0.53 -6.5,1.66 -6.59,3.6 -9.02,11.86 -5.42,18.45 l 102.03,186.98 c 3.6,6.59 11.85,9.04 18.46,5.42 6.59,-3.59 9.02,-11.85 5.42,-18.45 l -102.04,-186.98 c -2.47,-4.52 -7.13,-7.08 -11.95,-7.08"
            id="path484" />
         <path
            d="m 2115.96,1551.61 h -95.47 c -7.51,0 -13.6,6.09 -13.6,13.6 0,7.51 6.09,13.6 13.6,13.6 h 95.47 c 7.51,0 13.6,-6.09 13.6,-13.6 0,-7.51 -6.09,-13.6 -13.6,-13.6"
            id="path486" />
         <path
            d="m 1964.24,1840.31 c -257.13,0 -466.32,-209.19 -466.32,-466.32 0,-257.13 209.19,-466.318 466.32,-466.318 257.13,0 466.32,209.188 466.32,466.318 0,257.13 -209.19,466.32 -466.32,466.32 z m 0,-968.908 c -277.13,0 -502.59,225.458 -502.59,502.588 0,277.13 225.46,502.58 502.59,502.58 277.13,0 502.58,-225.45 502.58,-502.58 0,-277.13 -225.45,-502.588 -502.58,-502.588"
            id="path488" />
         <path
            d="m 1964.24,1825.72 c -249.09,0 -451.73,-202.64 -451.73,-451.73 0,-249.09 202.64,-451.728 451.73,-451.728 249.09,0 451.73,202.638 451.73,451.728 0,249.09 -202.64,451.73 -451.73,451.73 z m 0,-921.591 c -259.09,0 -469.86,210.771 -469.86,469.861 0,259.08 210.77,469.86 469.86,469.86 259.08,0 469.86,-210.78 469.86,-469.86 0,-259.09 -210.78,-469.861 -469.86,-469.861"
            id="path490" />
         <path d="m 1968.77,1373.99 h -9.07 v 460.79 h 9.07 v -460.79" id="path492" />
         <path d="m 1931.23,1376.32 -8.94,1.47 74.96,454.66 8.94,-1.47 -74.96,-454.66" id="path494" />
         <path d="m 1968.43,1372.25 -8.38,3.47 176.34,425.72 8.38,-3.47 -176.34,-425.72" id="path496" />
         <path d="m 1934.64,1388.77 -7.71,4.78 243.25,391.37 7.7,-4.78 -243.24,-391.37" id="path498" />
         <path d="m 1967.44,1370.78 -6.41,6.41 325.84,325.84 6.41,-6.42 -325.84,-325.83" id="path500" />
         <path d="m 1942.55,1398.97 -5.29,7.37 374.5,268.5 5.29,-7.37 -374.5,-268.5" id="path502" />
         <path d="m 1965.97,1369.8 -3.47,8.38 425.72,176.33 3.48,-8.37 -425.73,-176.34" id="path504" />
         <path d="m 1953.76,1405.36 -2.06,8.84 448.74,104.74 2.06,-8.84 -448.74,-104.74" id="path506" />
         <path d="m 2425.04,1369.46 h -460.8 v 9.06 h 460.8 v -9.06" id="path508" />
         <path d="m 2421.23,1332.03 -454.66,74.96 1.47,8.95 454.67,-74.97 -1.48,-8.94" id="path510" />
         <path d="m 2388.22,1193.46 -425.72,176.34 3.47,8.38 425.73,-176.34 -3.48,-8.38" id="path512" />
         <path d="m 2370.39,1160.34 -391.37,243.25 4.79,7.7 391.37,-243.25 -4.79,-7.7" id="path514" />
         <path d="m 2286.87,1044.95 -325.84,325.83 6.41,6.41 325.84,-325.83 -6.41,-6.41" id="path516" />
         <path d="m 2257.72,1021.18 -268.49,374.5 7.36,5.28 268.49,-374.5 -7.36,-5.28" id="path518" />
         <path d="m 2136.39,946.531 -176.34,425.719 8.38,3.47 176.34,-425.72 -8.38,-3.469" id="path520" />
         <path d="m 2100.36,935.73 -104.73,448.73 8.83,2.06 104.73,-448.731 -8.83,-2.059" id="path522" />
         <path d="m 1968.77,913.191 h -9.07 v 460.799 h 9.07 V 913.191" id="path524" />
         <path d="m 1931.23,915.52 -8.94,1.468 74.96,454.662 8.94,-1.47 -74.96,-454.66" id="path526" />
         <path d="m 1792.09,946.531 -8.38,3.469 176.34,425.72 8.38,-3.47 -176.34,-425.719" id="path528" />
         <path d="m 1758.3,963.059 -7.71,4.781 243.25,391.36 7.7,-4.78 -243.24,-391.361" id="path530" />
         <path d="m 1641.61,1044.95 -6.41,6.41 325.83,325.83 6.41,-6.41 -325.83,-325.83" id="path532" />
         <path d="m 1616.71,1073.14 -5.28,7.37 374.5,268.48 5.28,-7.36 -374.5,-268.49" id="path534" />
         <path d="m 1540.25,1193.46 -3.47,8.38 425.72,176.34 3.47,-8.38 -425.72,-176.34" id="path536" />
         <path d="m 1528.04,1229.03 -2.06,8.83 448.74,104.74 2.06,-8.83 -448.74,-104.74" id="path538" />
         <path d="m 1964.24,1369.46 h -460.8 v 9.06 h 460.8 v -9.06" id="path540" />
         <path d="m 1960.43,1332.03 -454.66,74.96 1.48,8.95 454.66,-74.97 -1.48,-8.94" id="path542" />
         <path d="m 1962.5,1369.8 -425.72,176.34 3.47,8.37 425.72,-176.33 -3.47,-8.38" id="path544" />
         <path d="m 1944.67,1336.68 -391.37,243.24 4.79,7.71 391.37,-243.25 -4.79,-7.7" id="path546" />
         <path d="m 1961.03,1370.78 -325.83,325.83 6.41,6.42 325.83,-325.84 -6.41,-6.41" id="path548" />
         <path d="m 1931.88,1347.01 -268.48,374.5 7.36,5.28 268.49,-374.5 -7.37,-5.28" id="path550" />
         <path d="m 1960.05,1372.25 -176.34,425.72 8.38,3.47 176.34,-425.72 -8.38,-3.47" id="path552" />
         <path d="m 1924.02,1361.45 -104.73,448.74 8.82,2.05 104.74,-448.73 -8.83,-2.06" id="path554" />
         <path d="m 1959.73,1373.53 -47.08,458.42 9.02,0.92 47.08,-458.42 -9.02,-0.92" id="path556" />
         <path d="m 1960.25,1371.84 -218.92,405.5 7.97,4.31 218.93,-405.51 -7.98,-4.3" id="path558" />
         <path d="m 1961.38,1370.47 -357.45,290.86 5.72,7.03 357.45,-290.86 -5.72,-7.03" id="path560" />
         <path d="m 1962.94,1369.64 -441.54,131.94 2.59,8.69 441.54,-131.93 -2.59,-8.7" id="path562" />
         <path d="m 1506.28,1322.4 -0.93,9.01 458.42,47.09 0.93,-9.02 -458.42,-47.08" id="path564" />
         <path d="m 1560.88,1151.06 -4.3,7.99 405.51,218.93 4.3,-7.98 -405.51,-218.94" id="path566" />
         <path d="m 1676.89,1013.68 -7.03,5.72 290.86,357.45 7.03,-5.72 -290.86,-357.45" id="path568" />
         <path d="m 1836.65,931.141 -8.69,2.597 131.93,441.552 8.69,-2.6 -131.93,-441.549" id="path570" />
         <path d="m 2006.81,915.102 -47.08,458.428 9.02,0.92 47.08,-458.419 -9.02,-0.929" id="path572" />
         <path d="m 2179.18,966.32 -218.93,405.52 7.98,4.3 218.92,-405.519 -7.97,-4.301" id="path574" />
         <path d="m 2318.82,1079.61 -357.44,290.86 5.72,7.03 357.44,-290.87 -5.72,-7.02" id="path576" />
         <path d="m 2404.48,1237.7 -441.54,131.94 2.59,8.7 441.55,-131.94 -2.6,-8.7" id="path578" />
         <path d="m 1964.7,1369.48 -0.93,9.02 458.43,47.07 0.93,-9.01 -458.43,-47.08" id="path580" />
         <path d="m 1966.39,1370 -4.3,7.98 405.51,218.93 4.3,-7.99 L 1966.39,1370" id="path582" />
         <path d="m 1967.75,1371.13 -7.03,5.72 290.87,357.44 7.03,-5.72 -290.87,-357.44" id="path584" />
         <path d="m 1968.58,1372.69 -8.69,2.6 131.94,441.54 8.69,-2.6 -131.94,-441.54" id="path586" />
         <path
            d="m 1917.16,1373.99 c 0,-26 21.08,-47.08 47.08,-47.08 26,0 47.08,21.08 47.08,47.08 0,26 -21.08,47.08 -47.08,47.08 -26,0 -47.08,-21.08 -47.08,-47.08"
            id="path588" />
         <path
            d="m 1964.24,1416.53 c -23.46,0 -42.55,-19.09 -42.55,-42.54 0,-23.46 19.09,-42.55 42.55,-42.55 23.46,0 42.54,19.09 42.54,42.55 0,23.45 -19.08,42.54 -42.54,42.54 z m 0,-94.16 c -28.46,0 -51.61,23.15 -51.61,51.62 0,28.45 23.15,51.61 51.61,51.61 28.46,0 51.61,-23.16 51.61,-51.61 0,-28.47 -23.15,-51.62 -51.61,-51.62"
            id="path590" />
         <path
            d="m 785.324,1604.97 c -193.437,0 -350.812,-157.37 -350.812,-350.82 0,-193.44 157.375,-350.81 350.812,-350.81 193.438,0 350.806,157.37 350.806,350.81 0,193.45 -157.368,350.82 -350.806,350.82 z m 0,-737.9 c -213.433,0 -387.078,173.65 -387.078,387.08 0,213.44 173.645,387.09 387.078,387.09 213.434,0 387.076,-173.65 387.076,-387.09 0,-213.43 -173.642,-387.08 -387.076,-387.08"
            id="path592" />
         <path
            d="m 785.324,1596.02 c -188.504,0 -341.863,-153.36 -341.863,-341.87 0,-188.5 153.359,-341.861 341.863,-341.861 188.504,0 341.866,153.361 341.866,341.861 0,188.51 -153.362,341.87 -341.866,341.87 z m 0,-701.86 c -198.504,0 -359.996,161.49 -359.996,359.99 0,198.51 161.492,360 359.996,360 198.5,0 359.996,-161.49 359.996,-360 0,-198.5 -161.496,-359.99 -359.996,-359.99"
            id="path594" />
         <path d="m 789.855,1254.15 h -9.066 v 350.94 h 9.066 v -350.94" id="path596" />
         <path d="m 761.25,1255.76 -8.941,1.47 57.086,346.25 8.945,-1.47 -57.09,-346.25" id="path598" />
         <path d="m 789.512,1252.42 -8.375,3.47 134.297,324.22 8.375,-3.47 -134.297,-324.22" id="path600" />
         <path d="m 763.699,1264.85 -7.703,4.78 185.25,298.05 7.699,-4.78 -185.246,-298.05" id="path602" />
         <path d="m 788.527,1250.95 -6.41,6.41 248.143,248.14 6.41,-6.41 -248.143,-248.14" id="path604" />
         <path d="m 769.434,1272.3 -5.286,7.37 285.212,204.48 5.28,-7.37 -285.206,-204.48" id="path606" />
         <path d="m 787.059,1249.97 -3.469,8.37 324.22,134.29 3.47,-8.37 -324.221,-134.29" id="path608" />
         <path d="m 777.594,1277.01 -2.063,8.83 341.739,79.76 2.07,-8.83 -341.746,-79.76" id="path610" />
         <path d="M 1136.25,1249.62 H 785.324 v 9.07 h 350.926 v -9.07" id="path612" />
         <path d="m 1133.18,1221.14 -346.258,57.09 1.476,8.94 346.262,-57.09 -1.48,-8.94" id="path614" />
         <path d="m 1107.81,1115.67 -324.22,134.3 3.469,8.37 324.221,-134.29 -3.47,-8.38" id="path616" />
         <path d="m 1094.06,1090.53 -298.044,185.25 4.789,7.7 298.045,-185.25 -4.79,-7.7" id="path618" />
         <path d="m 1030.26,1002.81 -248.143,248.14 6.41,6.41 248.143,-248.14 -6.41,-6.41" id="path620" />
         <path d="m 1007.95,984.84 -204.473,285.21 7.367,5.27 204.476,-285.199 -7.37,-5.281" id="path622" />
         <path d="m 915.434,928.199 -134.297,324.221 8.375,3.47 134.297,-324.218 -8.375,-3.473" id="path624" />
         <path d="m 887.941,920.148 -79.765,341.742 8.828,2.06 79.766,-341.739 -8.829,-2.063" id="path626" />
         <path d="m 789.855,903.219 h -9.066 v 350.931 h 9.066 V 903.219" id="path628" />
         <path d="m 761.25,904.832 -8.941,1.469 57.086,346.249 8.945,-1.47 -57.09,-346.248" id="path630" />
         <path d="m 655.219,928.199 -8.375,3.473 134.293,324.218 8.375,-3.47 -134.293,-324.221" id="path632" />
         <path d="m 629.406,940.629 -7.703,4.781 185.246,298.05 7.703,-4.78 -185.246,-298.051" id="path634" />
         <path d="m 540.383,1002.81 -6.41,6.41 248.144,248.14 6.41,-6.41 -248.144,-248.14" id="path636" />
         <path d="m 521.289,1024.16 -5.285,7.37 285.207,204.47 5.285,-7.36 -285.207,-204.48" id="path638" />
         <path d="m 462.844,1115.67 -3.473,8.38 324.219,134.29 3.469,-8.37 -324.215,-134.3" id="path640" />
         <path d="m 453.375,1142.71 -2.062,8.83 341.746,79.76 2.062,-8.83 -341.746,-79.76" id="path642" />
         <path d="M 785.324,1249.62 H 434.395 v 9.07 h 350.929 v -9.07" id="path644" />
         <path d="m 782.246,1221.14 -346.254,57.09 1.481,8.94 346.254,-57.09 -1.481,-8.94" id="path646" />
         <path d="m 783.59,1249.97 -324.219,134.29 3.473,8.37 324.215,-134.29 -3.469,-8.37" id="path648" />
         <path d="m 769.848,1224.82 -298.055,185.26 4.793,7.7 298.051,-185.25 -4.789,-7.71" id="path650" />
         <path d="m 782.117,1250.95 -248.144,248.14 6.41,6.41 248.144,-248.14 -6.41,-6.41" id="path652" />
         <path d="m 759.809,1232.99 -204.477,285.2 7.367,5.27 204.473,-285.2 -7.363,-5.27" id="path654" />
         <path d="m 781.137,1252.42 -134.293,324.22 8.375,3.47 134.293,-324.22 -8.375,-3.47" id="path656" />
         <path d="m 753.645,1244.36 -79.762,341.74 8.828,2.06 79.762,-341.74 -8.828,-2.06" id="path658" />
         <path d="m 780.813,1253.69 -35.852,349.12 9.019,0.92 35.856,-349.11 -9.023,-0.93" id="path660" />
         <path d="m 781.336,1252 -166.731,308.83 7.981,4.3 166.727,-308.82 -7.977,-4.31" id="path662" />
         <path d="m 782.465,1250.64 -272.219,221.51 5.719,7.03 272.219,-221.51 -5.719,-7.03" id="path664" />
         <path d="m 784.027,1249.81 -336.265,100.48 2.593,8.69 336.266,-100.48 -2.594,-8.69" id="path666" />
         <path d="m 436.668,1213.79 -0.93,9.01 349.121,35.86 0.93,-9.01 -349.121,-35.86" id="path668" />
         <path d="m 478.652,1083.43 -4.304,7.99 308.824,166.73 4.305,-7.99 -308.825,-166.73" id="path670" />
         <path d="m 567.324,979.078 -7.027,5.723 221.512,272.209 7.031,-5.72 -221.516,-272.212" id="path672" />
         <path d="m 689.191,916.578 -8.687,2.613 100.476,336.269 8.688,-2.61 -100.477,-336.272" id="path674" />
         <path d="m 816.672,904.582 -35.859,349.108 9.023,0.93 35.855,-349.12 -9.019,-0.918" id="path676" />
         <path d="M 948.063,943.18 781.336,1252 l 7.977,4.31 166.726,-308.83 -7.976,-4.3" id="path678" />
         <path d="m 1054.68,1029.13 -272.215,221.51 5.719,7.03 272.216,-221.51 -5.72,-7.03" id="path680" />
         <path d="m 1120.29,1149.33 -336.263,100.48 2.594,8.69 336.269,-100.48 -2.6,-8.69" id="path682" />
         <path d="m 785.789,1249.65 -0.93,9.01 349.121,35.86 0.93,-9.01 -349.121,-35.86" id="path684" />
         <path d="m 787.477,1250.16 -4.305,7.99 308.818,166.72 4.31,-7.99 -308.823,-166.72" id="path686" />
         <path d="m 788.84,1251.29 -7.031,5.72 221.511,272.22 7.03,-5.72 -221.51,-272.22" id="path688" />
         <path d="m 789.668,1252.85 -8.688,2.61 100.481,336.27 8.684,-2.61 -100.477,-336.27" id="path690" />
         <path
            d="m 749.473,1254.15 c 0,-19.8 16.05,-35.85 35.851,-35.85 19.801,0 35.856,16.05 35.856,35.85 0,19.81 -16.055,35.86 -35.856,35.86 -19.801,0 -35.851,-16.05 -35.851,-35.86"
            id="path692" />
         <path
            d="m 785.324,1285.48 c -17.269,0 -31.32,-14.05 -31.32,-31.33 0,-17.27 14.051,-31.32 31.32,-31.32 17.274,0 31.324,14.05 31.324,31.32 0,17.28 -14.05,31.33 -31.324,31.33 z m 0,-71.72 c -22.269,0 -40.386,18.13 -40.386,40.39 0,22.27 18.117,40.39 40.386,40.39 22.27,0 40.391,-18.12 40.391,-40.39 0,-22.26 -18.121,-40.39 -40.391,-40.39"
            id="path694" />
         <path
            d="m 1155.77,2143.82 c 3.65,22.55 53.02,17.65 97.66,0 44.65,-17.65 96.56,2.08 138.09,0 41.53,-2.08 63.33,-32.19 68.52,-43.61 5.19,-11.42 -16.61,-24.91 -49.83,-15.57 -33.23,9.34 -104.86,-0.02 -139.13,-3.13 -34.26,-3.1 -129.91,-28.02 -115.31,62.31"
            id="path696" />
         <path
            d="m 1135.75,2044.71 c -98.21,0 -189.656,-39.09 -257.504,-110.1 -67.848,-71 -102.766,-164.13 -98.305,-262.24 l 16.243,-357.55 c 176.468,392.32 563.466,643.77 996.196,643.77 h 167.07 c 23.74,0 43.06,19.31 43.06,43.06 0,23.74 -19.32,43.06 -43.06,43.06 z M 785.332,1240.56 c -0.773,0 -1.555,0.06 -2.336,0.2 -6.285,1.09 -10.969,6.4 -11.258,12.77 l -18.968,417.6 c -4.797,105.6 32.781,205.85 105.812,282.28 73.031,76.41 171.458,118.5 277.168,118.5 h 823.7 c 38.74,0 70.26,-31.52 70.26,-70.26 0,-38.74 -31.52,-70.26 -70.26,-70.26 h -167.07 c -434.17,0 -821.13,-259.58 -985.825,-661.31 l -8.653,-21.09 c -2.117,-5.17 -7.132,-8.43 -12.57,-8.43"
            id="path698" />
         <path d="m 1950.33,1376.36 -109.03,787.1 26.95,3.73 109.02,-787.09 -26.94,-3.74" id="path700" />
         <path
            d="m 1964.24,2150.21 h -145.43 c -7.51,0 -13.6,6.09 -13.6,13.6 0,7.51 6.09,13.6 13.6,13.6 h 127.46 l -16.92,60.04 c -16.25,57.64 -76.38,91.47 -134.11,75.4 l -180.58,-50.32 c -7.24,-2 -14.74,2.21 -16.75,9.45 -2.02,7.24 2.21,14.73 9.44,16.75 l 180.59,50.31 c 72.12,20.13 147.28,-22.17 167.59,-94.21 l 21.8,-77.33 c 1.15,-4.09 0.32,-8.5 -2.25,-11.89 -2.57,-3.4 -6.58,-5.4 -10.84,-5.4"
            id="path702" />
         <path
            d="m 1861.82,1173.41 c -2.2,0 -4.43,0.53 -6.5,1.66 -6.6,3.6 -9.02,11.86 -5.43,18.45 l 102.05,186.98 c 3.59,6.59 11.84,9.04 18.45,5.42 6.59,-3.59 9.02,-11.85 5.42,-18.45 l -102.04,-186.98 c -2.47,-4.52 -7.13,-7.08 -11.95,-7.08"
            id="path704" />
         <path
            d="m 1907.25,1169.17 h -95.47 c -7.51,0 -13.6,6.09 -13.6,13.6 0,7.51 6.09,13.6 13.6,13.6 h 95.47 c 7.51,0 13.6,-6.09 13.6,-13.6 0,-7.51 -6.09,-13.6 -13.6,-13.6"
            id="path706" />
         <path d="m 1297.7,2066.35 h -47.31 v 26.66 h 47.31 v -26.66" id="path708" />
         <path
            d="m 4326.2,1668.5 c -208.36,0 -377.88,-169.52 -377.88,-377.88 0,-208.37 169.52,-377.89 377.88,-377.89 208.37,0 377.89,169.52 377.89,377.89 0,208.36 -169.52,377.88 -377.89,377.88 z m 0,-795.77 c -230.42,0 -417.88,187.46 -417.88,417.89 0,230.42 187.46,417.88 417.88,417.88 230.43,0 417.89,-187.46 417.89,-417.88 0,-230.43 -187.46,-417.89 -417.89,-417.89"
            id="path710" />
         <path
            d="m 4326.2,1659.07 c -203.16,0 -368.45,-165.28 -368.45,-368.45 0,-203.16 165.29,-368.46 368.45,-368.46 203.17,0 368.46,165.3 368.46,368.46 0,203.17 -165.29,368.45 -368.46,368.45 z m 0,-756.91 c -214.19,0 -388.45,174.26 -388.45,388.46 0,214.19 174.26,388.45 388.45,388.45 214.2,0 388.46,-174.26 388.46,-388.45 0,-214.2 -174.26,-388.46 -388.46,-388.46"
            id="path712" />
         <path d="m 4331.2,1290.62 h -10 v 378.45 h 10 v -378.45" id="path714" />
         <path d="m 4300.35,1292.33 -9.86,1.62 61.56,373.41 9.87,-1.62 -61.57,-373.41" id="path716" />
         <path d="m 4330.82,1288.71 -9.24,3.83 144.83,349.63 9.24,-3.82 -144.83,-349.64" id="path718" />
         <path d="m 4302.98,1302.09 -8.5,5.27 199.78,321.44 8.5,-5.28 -199.78,-321.43" id="path720" />
         <path d="m 4329.74,1287.09 -7.07,7.07 267.6,267.6 7.08,-7.07 -267.61,-267.6" id="path722" />
         <path d="m 4309.14,1310.1 -5.83,8.13 307.57,220.51 5.83,-8.13 -307.57,-220.51" id="path724" />
         <path d="m 4328.12,1286 -3.83,9.24 349.65,144.82 3.83,-9.23 L 4328.12,1286" id="path726" />
         <path d="m 4317.89,1315.15 -2.27,9.75 368.54,86.01 2.28,-9.74 -368.55,-86.02" id="path728" />
         <path d="M 4704.66,1285.62 H 4326.2 v 10 h 378.46 v -10" id="path730" />
         <path d="m 4701.32,1254.91 -373.41,61.56 1.63,9.86 373.41,-61.56 -1.63,-9.86" id="path732" />
         <path d="m 4673.94,1141.17 -349.65,144.83 3.83,9.24 349.65,-144.83 -3.83,-9.24" id="path734" />
         <path d="m 4659.1,1114.07 -321.43,199.77 5.29,8.5 321.42,-199.78 -5.28,-8.49" id="path736" />
         <path d="m 4590.27,1019.48 -267.6,267.61 7.07,7.07 267.61,-267.61 -7.08,-7.07" id="path738" />
         <path d="m 4566.2,1000.11 -220.51,307.58 8.12,5.82 220.52,-307.58 -8.13,-5.82" id="path740" />
         <path d="m 4466.41,939.059 -144.83,349.651 9.24,3.83 144.83,-349.649 -9.24,-3.832" id="path742" />
         <path d="m 4436.76,930.391 -86.02,368.539 9.74,2.27 86.02,-368.552 -9.74,-2.257" id="path744" />
         <path d="m 4331.2,912.16 h -10 v 378.46 h 10 V 912.16" id="path746" />
         <path d="m 4300.35,913.871 -9.86,1.621 61.56,373.418 9.87,-1.62 -61.57,-373.419" id="path748" />
         <path d="m 4185.99,939.059 -9.24,3.832 144.83,349.649 9.24,-3.83 -144.83,-349.651" id="path750" />
         <path d="m 4158.15,952.449 -8.5,5.27 199.78,321.431 8.5,-5.28 -199.78,-321.421" id="path752" />
         <path d="m 4062.13,1019.48 -7.07,7.07 267.61,267.61 7.07,-7.07 -267.61,-267.61" id="path754" />
         <path d="m 4041.53,1042.5 -5.83,8.12 307.57,220.51 5.83,-8.13 -307.57,-220.5" id="path756" />
         <path d="m 3978.47,1141.17 -3.82,9.24 349.64,144.83 3.83,-9.24 -349.65,-144.83" id="path758" />
         <path d="m 3968.24,1170.32 -2.27,9.74 368.55,86.03 2.27,-9.75 -368.55,-86.02" id="path760" />
         <path d="m 4326.2,1285.62 h -378.45 v 10 h 378.45 v -10" id="path762" />
         <path d="m 4322.87,1254.91 -373.42,61.56 1.64,9.86 373.41,-61.56 -1.63,-9.86" id="path764" />
         <path d="m 4324.29,1286 -349.64,144.83 3.82,9.23 349.65,-144.82 -3.83,-9.24" id="path766" />
         <path d="m 4309.45,1258.89 -321.43,199.78 5.29,8.49 321.43,-199.77 -5.29,-8.5" id="path768" />
         <path d="m 4322.67,1287.09 -267.61,267.6 7.07,7.07 267.61,-267.6 -7.07,-7.07" id="path770" />
         <path d="m 4298.6,1267.72 -220.52,307.58 8.13,5.82 220.51,-307.58 -8.12,-5.82" id="path772" />
         <path d="m 4321.58,1288.71 -144.83,349.64 9.24,3.82 144.83,-349.63 -9.24,-3.83" id="path774" />
         <path d="m 4291.93,1280.04 -86.02,368.54 9.74,2.27 86.02,-368.55 -9.74,-2.26" id="path776" />
         <path d="m 4321.23,1290.11 -38.67,376.51 9.95,1.01 38.67,-376.5 -9.95,-1.02" id="path778" />
         <path d="m 4321.8,1288.25 -179.8,333.05 8.8,4.74 179.8,-333.05 -8.8,-4.74" id="path780" />
         <path d="m 4323.05,1286.74 -293.57,238.89 6.31,7.76 293.57,-238.89 -6.31,-7.76" id="path782" />
         <path d="m 4324.77,1285.83 -362.63,108.36 2.86,9.59 362.63,-108.36 -2.86,-9.59" id="path784" />
         <path d="m 3950.21,1246.98 -1.02,9.94 376.5,38.67 1.03,-9.94 -376.51,-38.67" id="path786" />
         <path d="m 3995.53,1106.41 -4.75,8.81 333.05,179.81 4.75,-8.81 -333.05,-179.81" id="path788" />
         <path d="m 4091.19,993.891 -7.75,6.309 238.89,293.58 7.75,-6.31 -238.89,-293.579" id="path790" />
         <path d="m 4222.63,926.539 -9.58,2.871 108.36,362.65 9.58,-2.87 -108.36,-362.651" id="path792" />
         <path d="m 4359.89,913.609 -38.66,376.501 9.95,1.02 38.67,-376.501 -9.96,-1.02" id="path794" />
         <path d="m 4501.61,955.199 -179.81,333.051 8.8,4.74 179.81,-333.041 -8.8,-4.75" id="path796" />
         <path d="m 4616.62,1047.86 -293.57,238.88 6.31,7.76 293.57,-238.89 -6.31,-7.75" id="path798" />
         <path d="m 4687.41,1177.47 -362.64,108.36 2.86,9.59 362.64,-108.36 -2.86,-9.59" id="path800" />
         <path d="m 4326.72,1285.65 -1.03,9.94 376.5,38.66 1.03,-9.94 -376.5,-38.66" id="path802" />
         <path d="m 4328.58,1286.22 -4.75,8.81 333.05,179.8 4.74,-8.81 -333.04,-179.8" id="path804" />
         <path d="m 4330.08,1287.47 -7.75,6.31 238.88,293.56 7.76,-6.31 -238.89,-293.56" id="path806" />
         <path d="m 4330.99,1289.19 -9.58,2.87 108.36,362.63 9.58,-2.87 -108.36,-362.63" id="path808" />
         <path
            d="m 4287.54,1290.62 c 0,-21.36 17.31,-38.67 38.66,-38.67 21.36,0 38.67,17.31 38.67,38.67 0,21.35 -17.31,38.66 -38.67,38.66 -21.35,0 -38.66,-17.31 -38.66,-38.66"
            id="path810" />
         <path
            d="m 4326.2,1324.28 c -18.56,0 -33.66,-15.09 -33.66,-33.66 0,-18.56 15.1,-33.67 33.66,-33.67 18.57,0 33.67,15.11 33.67,33.67 0,18.57 -15.1,33.66 -33.67,33.66 z m 0,-77.33 c -24.07,0 -43.66,19.59 -43.66,43.67 0,24.07 19.59,43.66 43.66,43.66 24.08,0 43.67,-19.59 43.67,-43.66 0,-24.08 -19.59,-43.67 -43.67,-43.67"
            id="path812" />
         <path
            d="m 3119.36,1668.5 c -208.36,0 -377.88,-169.52 -377.88,-377.88 0,-208.37 169.52,-377.89 377.88,-377.89 208.37,0 377.88,169.52 377.88,377.89 0,208.36 -169.51,377.88 -377.88,377.88 z m 0,-795.77 c -230.42,0 -417.88,187.46 -417.88,417.89 0,230.42 187.46,417.88 417.88,417.88 230.42,0 417.88,-187.46 417.88,-417.88 0,-230.43 -187.46,-417.89 -417.88,-417.89"
            id="path814" />
         <path
            d="m 3119.36,1659.07 c -203.16,0 -368.45,-165.28 -368.45,-368.45 0,-203.16 165.29,-368.46 368.45,-368.46 203.17,0 368.45,165.3 368.45,368.46 0,203.17 -165.28,368.45 -368.45,368.45 z m 0,-756.91 c -214.19,0 -388.45,174.26 -388.45,388.46 0,214.19 174.26,388.45 388.45,388.45 214.2,0 388.45,-174.26 388.45,-388.45 0,-214.2 -174.25,-388.46 -388.45,-388.46"
            id="path816" />
         <path d="m 3124.36,1290.62 h -10 v 378.45 h 10 v -378.45" id="path818" />
         <path d="m 3093.51,1292.33 -9.86,1.62 61.56,373.41 9.86,-1.62 -61.56,-373.41" id="path820" />
         <path d="m 3123.98,1288.71 -9.24,3.83 144.83,349.63 9.24,-3.82 -144.83,-349.64" id="path822" />
         <path d="m 3096.13,1302.09 -8.49,5.27 199.78,321.44 8.49,-5.28 -199.78,-321.43" id="path824" />
         <path d="m 3122.9,1287.09 -7.07,7.07 267.6,267.6 7.07,-7.07 -267.6,-267.6" id="path826" />
         <path d="m 3102.29,1310.1 -5.83,8.13 307.58,220.51 5.83,-8.13 -307.58,-220.51" id="path828" />
         <path d="m 3121.28,1286 -3.83,9.24 349.65,144.82 3.82,-9.23 L 3121.28,1286" id="path830" />
         <path d="m 3111.05,1315.15 -2.28,9.75 368.55,86.01 2.28,-9.74 -368.55,-86.02" id="path832" />
         <path d="m 3497.81,1285.62 h -378.45 v 10 h 378.45 v -10" id="path834" />
         <path d="m 3494.48,1254.91 -373.41,61.56 1.63,9.86 373.41,-61.56 -1.63,-9.86" id="path836" />
         <path d="m 3467.1,1141.17 -349.65,144.83 3.83,9.24 349.64,-144.83 -3.82,-9.24" id="path838" />
         <path d="m 3452.26,1114.07 -321.43,199.77 5.28,8.5 321.43,-199.78 -5.28,-8.49" id="path840" />
         <path d="m 3383.43,1019.48 -267.6,267.61 7.07,7.07 267.6,-267.61 -7.07,-7.07" id="path842" />
         <path d="m 3359.36,1000.11 -220.51,307.58 8.12,5.82 220.51,-307.58 -8.12,-5.82" id="path844" />
         <path d="m 3259.57,939.059 -144.83,349.651 9.24,3.83 144.83,-349.649 -9.24,-3.832" id="path846" />
         <path d="m 3229.92,930.391 -86.02,368.539 9.73,2.27 86.02,-368.552 -9.73,-2.257" id="path848" />
         <path d="m 3124.36,912.16 h -10 v 378.46 h 10 V 912.16" id="path850" />
         <path d="m 3093.51,913.871 -9.86,1.621 61.56,373.418 9.86,-1.62 -61.56,-373.419" id="path852" />
         <path d="m 2979.15,939.059 -9.24,3.832 144.83,349.649 9.24,-3.83 -144.83,-349.651" id="path854" />
         <path d="m 2951.31,952.449 -8.5,5.27 199.78,321.431 8.5,-5.28 -199.78,-321.421" id="path856" />
         <path d="m 2855.29,1019.48 -7.07,7.07 267.61,267.61 7.07,-7.07 -267.61,-267.61" id="path858" />
         <path d="m 2834.68,1042.5 -5.83,8.12 307.58,220.51 5.83,-8.13 -307.58,-220.5" id="path860" />
         <path d="m 2771.63,1141.17 -3.83,9.24 349.65,144.83 3.83,-9.24 -349.65,-144.83" id="path862" />
         <path d="m 2761.4,1170.32 -2.27,9.74 368.55,86.03 2.27,-9.75 -368.55,-86.02" id="path864" />
         <path d="m 3119.36,1285.62 h -378.45 v 10 h 378.45 v -10" id="path866" />
         <path d="m 3116.03,1254.91 -373.42,61.56 1.63,9.86 373.42,-61.56 -1.63,-9.86" id="path868" />
         <path d="m 3117.45,1286 -349.65,144.83 3.83,9.23 349.65,-144.82 -3.83,-9.24" id="path870" />
         <path d="m 3102.61,1258.89 -321.43,199.78 5.29,8.49 321.43,-199.77 -5.29,-8.5" id="path872" />
         <path d="m 3115.83,1287.09 -267.61,267.6 7.07,7.07 267.61,-267.6 -7.07,-7.07" id="path874" />
         <path d="m 3091.75,1267.72 -220.51,307.58 8.13,5.82 220.5,-307.58 -8.12,-5.82" id="path876" />
         <path d="m 3114.74,1288.71 -144.83,349.64 9.24,3.82 144.83,-349.63 -9.24,-3.83" id="path878" />
         <path d="m 3085.09,1280.04 -86.02,368.54 9.74,2.27 86.02,-368.55 -9.74,-2.26" id="path880" />
         <path d="m 3114.39,1290.11 -38.67,376.51 9.95,1.01 38.67,-376.5 -9.95,-1.02" id="path882" />
         <path d="m 3114.96,1288.25 -179.8,333.05 8.8,4.74 179.8,-333.05 -8.8,-4.74" id="path884" />
         <path d="m 3116.21,1286.74 -293.57,238.89 6.31,7.76 293.57,-238.89 -6.31,-7.76" id="path886" />
         <path d="m 3117.93,1285.83 -362.64,108.36 2.86,9.59 362.64,-108.36 -2.86,-9.59" id="path888" />
         <path d="m 2743.37,1246.98 -1.02,9.94 376.5,38.67 1.02,-9.94 -376.5,-38.67" id="path890" />
         <path d="m 2788.69,1106.41 -4.75,8.81 333.05,179.81 4.74,-8.81 -333.04,-179.81" id="path892" />
         <path d="m 2884.35,993.891 -7.75,6.309 238.88,293.58 7.76,-6.31 -238.89,-293.579" id="path894" />
         <path d="m 3015.79,926.539 -9.58,2.871 108.36,362.65 9.58,-2.87 -108.36,-362.651" id="path896" />
         <path d="m 3153.05,913.609 -38.66,376.501 9.95,1.02 38.66,-376.501 -9.95,-1.02" id="path898" />
         <path d="m 3294.77,955.199 -179.81,333.051 8.8,4.74 179.81,-333.041 -8.8,-4.75" id="path900" />
         <path d="m 3409.78,1047.86 -293.57,238.88 6.31,7.76 293.57,-238.89 -6.31,-7.75" id="path902" />
         <path d="m 3480.57,1177.47 -362.64,108.36 2.86,9.59 362.64,-108.36 -2.86,-9.59" id="path904" />
         <path d="m 3119.87,1285.65 -1.02,9.94 376.5,38.66 1.03,-9.94 -376.51,-38.66" id="path906" />
         <path d="m 3121.73,1286.22 -4.74,8.81 333.05,179.8 4.74,-8.81 -333.05,-179.8" id="path908" />
         <path d="m 3123.24,1287.47 -7.76,6.31 238.89,293.56 7.76,-6.31 -238.89,-293.56" id="path910" />
         <path d="m 3124.15,1289.19 -9.58,2.87 108.36,362.63 9.58,-2.87 -108.36,-362.63" id="path912" />
         <path
            d="m 3080.7,1290.62 c 0,-21.36 17.31,-38.67 38.66,-38.67 21.36,0 38.67,17.31 38.67,38.67 0,21.35 -17.31,38.66 -38.67,38.66 -21.35,0 -38.66,-17.31 -38.66,-38.66"
            id="path914" />
         <path
            d="m 3119.36,1324.28 c -18.56,0 -33.67,-15.09 -33.67,-33.66 0,-18.56 15.11,-33.67 33.67,-33.67 18.57,0 33.67,15.11 33.67,33.67 0,18.57 -15.1,33.66 -33.67,33.66 z m 0,-77.33 c -24.08,0 -43.67,19.59 -43.67,43.67 0,24.07 19.59,43.66 43.67,43.66 24.08,0 43.67,-19.59 43.67,-43.66 0,-24.08 -19.59,-43.67 -43.67,-43.67"
            id="path916" />
         <path
            d="m 3133.29,2019.04 c 4.02,24.87 58.48,19.47 107.72,0 49.24,-19.46 106.5,2.29 152.3,0 45.81,-2.29 69.86,-35.5 75.59,-48.09 5.72,-12.6 -18.33,-27.49 -54.97,-17.18 -36.65,10.31 -115.66,-0.03 -153.45,-3.45 -37.79,-3.42 -143.3,-30.91 -127.19,68.72"
            id="path918" />
         <path
            d="m 3665.2,1280.62 c -1.62,0 -3.26,0.39 -4.78,1.22 -4.85,2.65 -6.64,8.72 -3.99,13.58 l 75.95,139.18 c 2.65,4.83 8.73,6.62 13.57,3.98 4.85,-2.65 6.64,-8.72 3.99,-13.57 l -75.95,-139.18 c -1.82,-3.32 -5.25,-5.21 -8.79,-5.21"
            id="path920" />
         <path
            d="m 3778.41,1422.96 h -71.06 c -5.52,0 -10,4.47 -10,10 0,5.52 4.48,10 10,10 h 71.06 c 5.53,0 10,-4.48 10,-10 0,-5.53 -4.47,-10 -10,-10"
            id="path922" />
         <path
            d="m 3119.36,1275.62 c -1.57,0 -3.17,0.25 -4.74,0.77 -7.87,2.62 -12.11,11.12 -9.49,18.98 l 200.46,600.89 c 2.61,7.85 11.12,12.12 18.97,9.48 7.86,-2.62 12.11,-11.11 9.48,-18.98 l -200.45,-600.88 c -2.09,-6.28 -7.95,-10.26 -14.23,-10.26"
            id="path924" />
         <path
            d="m 4325.94,1276.22 c -5.01,0 -9.91,2.51 -12.75,7.09 l -23.68,38.11 c -65.85,106.01 -114.22,221.55 -143.78,343.4 l -74.18,305.83 c -1.75,7.2 -8.42,12.04 -15.75,11.36 l -190.57,-15.86 c -8.35,-0.63 -15.51,5.46 -16.2,13.71 -0.68,8.25 5.45,15.5 13.71,16.19 l 190.58,15.86 c 22.25,1.8 42.14,-12.55 47.38,-34.19 l 74.18,-305.83 c 28.81,-118.76 75.95,-231.35 140.12,-334.64 l 23.67,-38.12 c 4.37,-7.03 2.21,-16.28 -4.83,-20.66 -2.46,-1.52 -5.2,-2.25 -7.9,-2.25"
            id="path926" />
         <path
            d="m 4104.53,1876.51 h -784.71 c -8.29,0 -15,6.72 -15,15 0,8.28 6.71,15 15,15 h 784.71 c 8.29,0 15,-6.72 15,-15 0,-8.28 -6.71,-15 -15,-15"
            id="path928" />
         <path
            d="m 3584.48,1290.62 c 0,-44.59 36.14,-80.73 80.73,-80.73 44.58,0 80.72,36.14 80.72,80.73 0,44.58 -36.14,80.73 -80.72,80.73 -44.59,0 -80.73,-36.15 -80.73,-80.73"
            style="fill:#fbfafa;fill-opacity:1;fill-rule:nonzero;stroke:none" id="path930" />
         <path
            d="m 3665.21,1361.34 c -39,0 -70.73,-31.72 -70.73,-70.72 0,-39 31.73,-70.73 70.73,-70.73 39,0 70.72,31.73 70.72,70.73 0,39 -31.72,70.72 -70.72,70.72 z m 0,-161.45 c -50.03,0 -90.73,40.7 -90.73,90.73 0,50.03 40.7,90.72 90.73,90.72 50.03,0 90.72,-40.69 90.72,-90.72 0,-50.03 -40.69,-90.73 -90.72,-90.73"
            id="path932" />
         <path
            d="m 3645.87,1290.62 c 0,-10.68 8.66,-19.34 19.34,-19.34 10.67,0 19.33,8.66 19.33,19.34 0,10.68 -8.66,19.33 -19.33,19.33 -10.68,0 -19.34,-8.65 -19.34,-19.33"
            id="path934" />
         <path
            d="m 3119.36,1337.48 c -25.84,0 -46.86,-21.02 -46.86,-46.86 0,-25.84 21.02,-46.86 46.86,-46.86 25.84,0 46.87,21.02 46.87,46.86 0,25.84 -21.03,46.86 -46.87,46.86 z m 0,-103.72 c -31.36,0 -56.86,25.5 -56.86,56.86 0,31.35 25.5,56.86 56.86,56.86 31.36,0 56.87,-25.51 56.87,-56.86 0,-31.36 -25.51,-56.86 -56.87,-56.86"
            id="path936" />
         <path
            d="m 3115.22,1337.27 c -2.64,0 -4.84,2.06 -4.98,4.73 -0.16,2.75 1.95,5.12 4.71,5.26 l 5,0.28 c 2.73,0.31 5.11,-1.96 5.26,-4.72 0.15,-2.76 -1.96,-5.12 -4.72,-5.26 l -4.99,-0.28 c -0.09,-0.01 -0.19,-0.01 -0.28,-0.01"
            id="path938" />
         <path
            d="m 3130.03,1338.06 c -2.64,0 -4.85,2.07 -4.99,4.74 -0.14,2.75 1.97,5.11 4.73,5.25 l 9.82,0.52 c 2.47,0.25 4.57,-1.52 5.12,-3.81 0.32,2.35 2.25,4.2 4.7,4.33 l 9.82,0.52 c 2.43,0.15 4.57,-1.52 5.12,-3.82 0.3,2.35 2.25,4.22 4.69,4.34 l 9.82,0.52 c 2.54,0.19 4.57,-1.52 5.13,-3.81 0.31,2.35 2.25,4.2 4.69,4.33 l 9.82,0.52 c 2.51,0.22 4.57,-1.53 5.12,-3.82 0.31,2.34 2.25,4.21 4.7,4.33 l 9.82,0.52 c 2.47,0.26 4.56,-1.52 5.12,-3.81 0.31,2.35 2.25,4.2 4.69,4.33 l 9.82,0.53 c 2.5,0.15 4.58,-1.52 5.13,-3.82 0.3,2.34 2.24,4.21 4.69,4.33 l 9.82,0.52 c 2.41,0.2 4.56,-1.52 5.12,-3.81 0.31,2.35 2.25,4.2 4.69,4.33 l 9.82,0.52 c 2.52,0.23 4.58,-1.53 5.13,-3.82 0.3,2.34 2.25,4.21 4.69,4.33 l 9.82,0.52 c 2.46,0.25 4.57,-1.51 5.12,-3.8 0.31,2.34 2.25,4.2 4.7,4.33 l 9.81,0.52 c 2.46,0.17 4.58,-1.53 5.13,-3.82 0.3,2.34 2.25,4.21 4.69,4.33 l 9.82,0.52 c 2.43,0.22 4.57,-1.52 5.13,-3.81 0.31,2.35 2.25,4.2 4.69,4.33 l 9.82,0.52 c 2.52,0.25 4.58,-1.53 5.12,-3.82 0.31,2.34 2.25,4.21 4.7,4.33 l 9.81,0.52 c 2.5,0.16 4.57,-1.51 5.12,-3.82 0.31,2.36 2.25,4.22 4.7,4.35 l 9.82,0.52 c 2.46,0.18 4.58,-1.53 5.13,-3.82 0.3,2.34 2.24,4.21 4.69,4.33 l 9.81,0.52 c 2.44,0.23 4.58,-1.52 5.13,-3.82 0.3,2.35 2.25,4.21 4.69,4.34 l 9.82,0.52 c 2.54,0.26 4.58,-1.53 5.13,-3.82 0.3,2.34 2.25,4.21 4.69,4.33 l 9.81,0.53 c 2.44,0.22 4.58,-1.51 5.13,-3.82 0.31,2.35 2.25,4.21 4.7,4.34 l 9.81,0.52 c 2.48,0.19 4.58,-1.53 5.13,-3.82 0.3,2.34 2.25,4.21 4.69,4.33 l 9.82,0.52 c 2.44,0.24 4.57,-1.52 5.13,-3.82 0.3,2.35 2.24,4.21 4.69,4.34 l 9.82,0.52 c 2.54,0.27 4.57,-1.53 5.12,-3.82 0.31,2.35 2.25,4.22 4.7,4.34 l 9.81,0.52 c 2.51,0.17 4.58,-1.52 5.13,-3.82 0.3,2.35 2.24,4.21 4.69,4.34 l 9.82,0.52 c 2.48,0.2 4.57,-1.53 5.13,-3.82 0.3,2.34 2.24,4.21 4.69,4.34 l 9.81,0.51 c 2.45,0.25 4.58,-1.52 5.13,-3.82 0.3,2.35 2.25,4.21 4.69,4.34 l 9.82,0.53 c 2.52,0.21 4.58,-1.52 5.13,-3.82 0.3,2.34 2.25,4.21 4.69,4.34 l 9.82,0.51 c 2.52,0.19 4.58,-1.52 5.12,-3.82 0.31,2.35 2.25,4.21 4.7,4.34 l 9.81,0.52 c 2.49,0.22 4.58,-1.53 5.13,-3.82 0.3,2.34 2.25,4.21 4.69,4.34 l 9.82,0.51 c 2.73,0.34 5.11,-1.97 5.26,-4.72 0.14,-2.76 -1.98,-5.11 -4.73,-5.26 l -9.82,-0.51 c -2.36,-0.4 -4.57,1.51 -5.13,3.81 -0.3,-2.34 -2.24,-4.21 -4.69,-4.33 l -9.82,-0.52 c -2.32,-0.29 -4.57,1.51 -5.12,3.82 -0.31,-2.35 -2.25,-4.21 -4.7,-4.34 l -9.81,-0.52 c -2.3,-0.33 -4.58,1.52 -5.13,3.82 -0.3,-2.34 -2.24,-4.21 -4.69,-4.33 l -9.81,-0.53 c -2.35,-0.36 -4.58,1.51 -5.14,3.82 -0.3,-2.35 -2.24,-4.21 -4.69,-4.34 l -9.81,-0.52 c -2.37,-0.26 -4.57,1.52 -5.13,3.82 -0.3,-2.34 -2.25,-4.21 -4.69,-4.33 l -9.82,-0.52 c -2.33,-0.3 -4.57,1.51 -5.13,3.82 -0.3,-2.35 -2.25,-4.21 -4.69,-4.34 l -9.82,-0.52 c -2.3,-0.34 -4.56,1.52 -5.12,3.82 -0.31,-2.35 -2.25,-4.22 -4.7,-4.34 l -9.81,-0.52 c -2.41,-0.37 -4.58,1.51 -5.13,3.82 -0.3,-2.35 -2.25,-4.21 -4.69,-4.34 l -9.82,-0.52 c -2.37,-0.27 -4.57,1.52 -5.13,3.82 -0.3,-2.34 -2.24,-4.21 -4.69,-4.33 l -9.82,-0.52 c -2.34,-0.31 -4.57,1.51 -5.12,3.82 -0.31,-2.35 -2.25,-4.21 -4.69,-4.34 l -9.82,-0.53 c -2.42,-0.36 -4.58,1.52 -5.13,3.82 -0.3,-2.34 -2.24,-4.21 -4.69,-4.33 l -9.82,-0.52 c -2.41,-0.38 -4.57,1.51 -5.13,3.82 -0.3,-2.35 -2.24,-4.21 -4.69,-4.34 l -9.81,-0.52 c -2.38,-0.29 -4.58,1.52 -5.13,3.82 -0.3,-2.34 -2.25,-4.21 -4.69,-4.33 l -9.82,-0.52 c -2.35,-0.33 -4.57,1.51 -5.12,3.82 -0.31,-2.36 -2.26,-4.22 -4.7,-4.35 l -9.82,-0.52 c -2.31,-0.36 -4.57,1.52 -5.12,3.82 -0.31,-2.34 -2.25,-4.21 -4.7,-4.33 l -9.81,-0.52 c -2.42,-0.27 -4.57,1.51 -5.13,3.81 -0.31,-2.35 -2.25,-4.2 -4.69,-4.33 l -9.82,-0.52 c -2.39,-0.3 -4.57,1.52 -5.13,3.82 -0.3,-2.34 -2.24,-4.21 -4.69,-4.33 l -9.82,-0.52 c -2.39,-0.35 -4.56,1.5 -5.12,3.8 -0.31,-2.34 -2.25,-4.2 -4.69,-4.33 l -9.82,-0.52 c -2.33,-0.37 -4.57,1.52 -5.13,3.82 -0.3,-2.34 -2.24,-4.21 -4.69,-4.33 l -9.82,-0.52 c -2.43,-0.28 -4.56,1.51 -5.12,3.81 -0.31,-2.35 -2.25,-4.2 -4.69,-4.33 l -9.82,-0.52 c -2.4,-0.31 -4.58,1.52 -5.13,3.82 -0.3,-2.34 -2.25,-4.21 -4.69,-4.33 l -9.82,-0.53 c -2.43,-0.29 -4.57,1.5 -5.12,3.81 -0.32,-2.35 -2.26,-4.2 -4.7,-4.33 l -9.82,-0.52 c -2.33,-0.38 -4.57,1.52 -5.12,3.82 -0.31,-2.34 -2.25,-4.21 -4.7,-4.33 l -9.81,-0.52 c -2.3,-0.29 -4.56,1.51 -5.13,3.81 -0.31,-2.35 -2.25,-4.2 -4.69,-4.33 l -9.82,-0.52 c -2.4,-0.32 -4.57,1.52 -5.12,3.82 -0.31,-2.35 -2.25,-4.22 -4.7,-4.34 l -9.82,-0.52 c -2.37,-0.35 -4.56,1.51 -5.12,3.81 -0.31,-2.35 -2.25,-4.2 -4.69,-4.33 l -9.82,-0.52 c -0.09,-0.01 -0.18,-0.01 -0.27,-0.01"
            id="path940" />
         <path
            d="m 3660.21,1366.08 c -2.65,0 -4.85,2.07 -4.99,4.74 -0.15,2.75 1.97,5.1 4.73,5.25 l 4.99,0.26 c 2.63,0.31 5.12,-1.97 5.26,-4.72 0.14,-2.76 -1.97,-5.11 -4.73,-5.26 l -4.99,-0.26 c -0.09,-0.01 -0.19,-0.01 -0.27,-0.01"
            id="path942" />
         <path
            d="m 3124.36,1233.49 c -0.09,0 -0.18,0 -0.27,0.01 l -4.99,0.27 c -2.76,0.14 -4.87,2.5 -4.73,5.25 0.14,2.75 2.46,5.08 5.26,4.73 l 4.99,-0.27 c 2.76,-0.14 4.87,-2.5 4.73,-5.25 -0.14,-2.67 -2.35,-4.74 -4.99,-4.74"
            id="path944" />
         <path
            d="m 3144.58,1232.42 c -0.09,0 -0.18,0 -0.27,0.01 l -10.11,0.54 c -2.76,0.14 -4.88,2.5 -4.73,5.25 0.15,2.75 2.65,5.03 5.26,4.73 l 10.11,-0.54 c 2.76,-0.15 4.88,-2.5 4.73,-5.26 -0.14,-2.66 -2.35,-4.73 -4.99,-4.73 z m 20.22,-1.07 c -0.09,0 -0.18,0 -0.27,0.01 l -10.11,0.54 c -2.76,0.15 -4.88,2.5 -4.73,5.25 0.14,2.76 2.47,5.13 5.26,4.73 l 10.11,-0.54 c 2.76,-0.14 4.88,-2.5 4.73,-5.25 -0.14,-2.67 -2.35,-4.74 -4.99,-4.74 z m 20.22,-1.07 c -0.09,0 -0.18,0 -0.27,0.01 l -10.1,0.54 c -2.76,0.14 -4.88,2.5 -4.74,5.25 0.15,2.75 2.62,4.9 5.26,4.73 l 10.11,-0.54 c 2.76,-0.15 4.88,-2.5 4.73,-5.25 -0.14,-2.67 -2.35,-4.74 -4.99,-4.74 z m 20.22,-1.06 c -0.09,0 -0.18,0 -0.27,0 l -10.11,0.54 c -2.75,0.15 -4.87,2.5 -4.73,5.26 0.15,2.75 2.52,5.13 5.26,4.72 l 10.11,-0.53 c 2.76,-0.15 4.88,-2.5 4.73,-5.26 -0.14,-2.66 -2.35,-4.73 -4.99,-4.73 z m 20.23,-1.08 c -0.09,0 -0.19,0 -0.27,0.01 l -10.12,0.54 c -2.75,0.14 -4.87,2.5 -4.73,5.25 0.14,2.76 2.47,5 5.26,4.73 l 10.11,-0.54 c 2.76,-0.15 4.88,-2.5 4.74,-5.25 -0.15,-2.67 -2.35,-4.74 -4.99,-4.74 z m 20.22,-1.06 c -0.09,0 -0.19,0 -0.27,0.01 l -10.12,0.53 c -2.75,0.15 -4.87,2.5 -4.73,5.26 0.15,2.75 2.66,4.92 5.26,4.72 l 10.11,-0.53 c 2.76,-0.15 4.88,-2.5 4.74,-5.26 -0.15,-2.66 -2.36,-4.73 -4.99,-4.73 z m 20.21,-1.08 c -0.08,0 -0.18,0 -0.26,0.01 l -10.11,0.54 c -2.76,0.15 -4.88,2.5 -4.73,5.25 0.14,2.76 2.56,4.94 5.26,4.73 l 10.1,-0.54 c 2.76,-0.14 4.88,-2.5 4.74,-5.25 -0.15,-2.67 -2.36,-4.74 -5,-4.74 z m 20.23,-1.06 c -0.09,0 -0.18,0 -0.27,0.01 l -10.11,0.53 c -2.76,0.15 -4.88,2.5 -4.73,5.26 0.14,2.75 2.45,5.02 5.26,4.73 l 10.11,-0.54 c 2.76,-0.15 4.88,-2.5 4.73,-5.26 -0.14,-2.66 -2.35,-4.73 -4.99,-4.73 z m 20.22,-1.08 c -0.09,0 -0.18,0 -0.27,0.01 l -10.11,0.54 c -2.76,0.15 -4.88,2.5 -4.73,5.25 0.14,2.76 2.55,5.03 5.26,4.73 l 10.11,-0.54 c 2.76,-0.14 4.88,-2.5 4.73,-5.25 -0.14,-2.67 -2.35,-4.74 -4.99,-4.74 z m 20.22,-1.06 c -0.09,0 -0.18,0 -0.27,0.01 l -10.11,0.54 c -2.76,0.14 -4.88,2.5 -4.73,5.25 0.14,2.75 2.5,5.04 5.26,4.73 l 10.11,-0.54 c 2.76,-0.15 4.88,-2.5 4.73,-5.25 -0.14,-2.67 -2.35,-4.74 -4.99,-4.74 z m 20.22,-1.07 c -0.09,0 -0.18,0 -0.27,0.01 l -10.1,0.53 c -2.76,0.14 -4.88,2.49 -4.74,5.26 0.15,2.75 2.45,5.04 5.26,4.72 l 10.1,-0.53 c 2.76,-0.13 4.88,-2.49 4.74,-5.25 -0.14,-2.66 -2.35,-4.74 -4.99,-4.74 z m 20.22,-1.07 c -0.08,0 -0.18,0 -0.27,0.01 l -10.11,0.54 c -2.76,0.14 -4.88,2.5 -4.73,5.25 0.15,2.76 2.57,4.98 5.26,4.73 l 10.11,-0.54 c 2.76,-0.15 4.88,-2.5 4.73,-5.25 -0.14,-2.67 -2.35,-4.74 -4.99,-4.74 z m 20.22,-1.06 c -0.08,0 -0.17,0 -0.26,0.01 l -10.11,0.52 c -2.76,0.14 -4.88,2.49 -4.74,5.26 0.14,2.75 2.5,5.07 5.25,4.72 l 10.12,-0.52 c 2.76,-0.14 4.87,-2.49 4.73,-5.26 -0.14,-2.66 -2.35,-4.73 -4.99,-4.73 z m 20.22,-1.08 c -0.09,0 -0.18,0 -0.27,0.01 l -10.1,0.54 c -2.76,0.15 -4.88,2.5 -4.73,5.25 0.15,2.76 2.54,5 5.25,4.73 l 10.11,-0.54 c 2.76,-0.14 4.88,-2.5 4.73,-5.25 -0.14,-2.67 -2.35,-4.74 -4.99,-4.74 z m 20.22,-1.06 c -0.09,0 -0.17,0 -0.26,0.01 l -10.11,0.52 c -2.76,0.14 -4.88,2.49 -4.74,5.26 0.15,2.75 2.54,5.08 5.26,4.72 l 10.11,-0.52 c 2.76,-0.14 4.87,-2.49 4.73,-5.26 -0.14,-2.66 -2.35,-4.73 -4.99,-4.73 z m 20.23,-1.08 c -0.09,0 -0.18,0 -0.27,0.01 l -10.11,0.54 c -2.76,0.15 -4.88,2.5 -4.74,5.25 0.15,2.76 2.49,5.09 5.26,4.73 l 10.12,-0.54 c 2.75,-0.14 4.87,-2.5 4.73,-5.25 -0.14,-2.67 -2.35,-4.74 -4.99,-4.74 z m 20.22,-1.06 c -0.09,0 -0.18,0 -0.27,0.01 l -10.11,0.53 c -2.76,0.13 -4.88,2.49 -4.74,5.25 0.15,2.75 2.44,5.1 5.26,4.73 l 10.11,-0.53 c 2.76,-0.14 4.88,-2.49 4.74,-5.25 -0.14,-2.67 -2.35,-4.74 -4.99,-4.74 z m 20.22,-1.08 c -0.09,0 -0.18,0 -0.27,0.01 l -10.11,0.54 c -2.76,0.15 -4.88,2.5 -4.73,5.26 0.15,2.75 2.53,5.09 5.26,4.72 l 10.11,-0.54 c 2.75,-0.14 4.87,-2.5 4.73,-5.25 -0.14,-2.67 -2.36,-4.74 -4.99,-4.74 z m 20.22,-1.06 c -0.09,0 -0.17,0 -0.26,0.01 l -10.11,0.53 c -2.76,0.13 -4.88,2.49 -4.74,5.25 0.14,2.75 2.47,5.12 5.25,4.73 l 10.11,-0.53 c 2.76,-0.14 4.88,-2.49 4.74,-5.25 -0.14,-2.67 -2.35,-4.74 -4.99,-4.74 z m 20.22,-1.07 c -0.09,0 -0.18,0 -0.27,0.01 l -10.11,0.53 c -2.76,0.15 -4.88,2.5 -4.73,5.26 0.14,2.75 2.62,4.91 5.26,4.72 l 10.11,-0.53 c 2.76,-0.15 4.88,-2.5 4.73,-5.26 -0.14,-2.66 -2.35,-4.73 -4.99,-4.73 z m 20.22,-1.07 c -0.09,0 -0.18,0 -0.26,0.01 l -10.11,0.53 c -2.76,0.14 -4.88,2.49 -4.74,5.25 0.15,2.76 2.52,5.13 5.26,4.73 l 10.1,-0.53 c 2.76,-0.14 4.88,-2.49 4.74,-5.25 -0.14,-2.67 -2.35,-4.74 -4.99,-4.74 z m 20.22,-1.07 c -0.09,0 -0.18,0 -0.27,0.01 l -10.11,0.53 c -2.75,0.15 -4.87,2.5 -4.73,5.26 0.15,2.75 2.59,4.93 5.26,4.72 l 10.11,-0.53 c 2.76,-0.15 4.88,-2.5 4.73,-5.26 -0.14,-2.66 -2.35,-4.73 -4.99,-4.73 z m 20.22,-1.07 c -0.08,0 -0.18,0 -0.26,0.01 l -10.12,0.54 c -2.75,0.15 -4.87,2.5 -4.73,5.25 0.15,2.76 2.42,5.14 5.26,4.73 l 10.11,-0.54 c 2.76,-0.14 4.88,-2.5 4.74,-5.25 -0.15,-2.67 -2.36,-4.74 -5,-4.74 z m 20.22,-1.07 c -0.08,0 -0.18,0 -0.26,0.01 l -10.12,0.54 c -2.76,0.14 -4.87,2.5 -4.73,5.25 0.15,2.75 2.52,5.15 5.26,4.73 l 10.11,-0.54 c 2.76,-0.15 4.88,-2.5 4.73,-5.26 -0.14,-2.66 -2.34,-4.73 -4.99,-4.73 z m 20.22,-1.07 c -0.08,0 -0.18,0 -0.26,0.01 l -10.11,0.54 c -2.76,0.15 -4.88,2.5 -4.73,5.25 0.14,2.76 2.62,4.96 5.26,4.73 l 10.1,-0.54 c 2.76,-0.14 4.88,-2.5 4.73,-5.25 -0.14,-2.67 -2.34,-4.74 -4.99,-4.74 z m 20.23,-1.07 c -0.09,0 -0.18,0 -0.27,0.01 l -10.11,0.54 c -2.76,0.14 -4.88,2.5 -4.73,5.25 0.15,2.75 2.53,4.97 5.26,4.73 l 10.11,-0.54 c 2.76,-0.15 4.88,-2.5 4.73,-5.25 -0.14,-2.67 -2.35,-4.74 -4.99,-4.74"
            id="path946" />
         <path
            d="m 3665.21,1204.89 c -0.09,0 -0.18,0 -0.27,0.01 l -4.99,0.26 c -2.76,0.15 -4.88,2.5 -4.73,5.26 0.14,2.75 2.51,5.02 5.26,4.72 l 4.99,-0.26 c 2.76,-0.15 4.87,-2.5 4.73,-5.25 -0.14,-2.67 -2.35,-4.74 -4.99,-4.74"
            id="path948" />
         <path d="m 3670.21,1290.62 h -10 v 80.72 h 10 v -80.72" id="path950" />
         <path d="m 3663.66,1285.87 -76.77,24.94 3.08,9.51 76.78,-24.94 -3.09,-9.51" id="path952" />
         <path d="m 3621.8,1222.37 -8.09,5.88 47.45,65.31 8.09,-5.88 -47.45,-65.31" id="path954" />
         <path d="m 3708.61,1222.37 -47.45,65.31 8.09,5.88 47.45,-65.31 -8.09,-5.88" id="path956" />
         <path d="m 3666.75,1285.87 -3.09,9.51 76.78,24.94 3.09,-9.51 -76.78,-24.94" id="path958" />
         <path
            d="m 3564.87,1245.51 -19.9,2 c 1.42,14.22 2.15,28.73 2.15,43.11 0,235.87 -191.89,427.76 -427.76,427.76 -198.72,0 -369.79,-134.78 -416,-327.77 l -19.46,4.66 c 48.39,202.02 227.45,343.11 435.46,343.11 246.9,0 447.76,-200.86 447.76,-447.76 0,-15.04 -0.76,-30.21 -2.25,-45.11"
            id="path960" />
         <path d="m 3116.13,1286.5 -360.94,247.11 5.64,8.24 360.95,-247.11 -5.65,-8.24" id="path962" />
         <path
            d="m 3665.21,1275.62 h -546.25 c -8.29,0 -15,6.72 -15,15 0,8.28 6.71,15 15,15 h 546.25 c 8.28,0 15,-6.72 15,-15 0,-8.28 -6.72,-15 -15,-15"
            id="path964" />
         <path
            d="m 3665.22,1275.62 c -5.19,0 -10.24,2.7 -13.02,7.53 l -391.13,680.48 c -4.13,7.18 -1.66,16.35 5.52,20.48 7.2,4.11 16.36,1.65 20.48,-5.54 l 391.14,-680.48 c 4.13,-7.18 1.65,-16.35 -5.53,-20.48 -2.36,-1.34 -4.92,-1.99 -7.46,-1.99"
            id="path966" />
         <path
            d="m 3665.21,1275.62 c -3.73,0 -7.45,1.38 -10.36,4.15 -5.99,5.72 -6.22,15.22 -0.49,21.21 l 466.99,489.19 c 5.73,5.99 15.22,6.21 21.21,0.49 5.99,-5.72 6.22,-15.21 0.49,-21.21 l -466.99,-489.19 c -2.95,-3.09 -6.9,-4.64 -10.85,-4.64"
            id="path968" />
         <path
            d="m 3917.31,1939.29 c -2.3,0 -4.38,1.6 -4.88,3.96 -0.58,2.69 1.14,5.35 3.84,5.94 l 166.65,35.78 c 2.67,0.52 5.35,-1.15 5.93,-3.85 0.59,-2.7 -1.13,-5.35 -3.83,-5.94 l -166.65,-35.78 c -0.36,-0.07 -0.71,-0.11 -1.06,-0.11"
            id="path970" />
         <path
            d="m 3589.24,1141.43 c -1.62,0 -3.26,0.39 -4.78,1.22 -4.85,2.65 -6.64,8.72 -3.99,13.58 l 75.96,139.19 c 2.64,4.83 8.73,6.63 13.57,3.98 4.85,-2.65 6.63,-8.72 3.99,-13.57 l -75.96,-139.19 c -1.82,-3.32 -5.25,-5.21 -8.79,-5.21"
            id="path972" />
         <path
            d="m 3623.06,1138.28 h -71.07 c -5.52,0 -10,4.47 -10,10 0,5.53 4.48,10 10,10 h 71.07 c 5.52,0 10,-4.47 10,-10 0,-5.53 -4.48,-10 -10,-10"
            id="path974" />
         <path
            d="m 3894.03,1173.09 c -10.34,38.12 -15.58,77.67 -15.58,117.53 0,181.88 108.58,344.34 276.63,413.89 l 7.65,-18.48 c -160.55,-66.45 -264.28,-221.66 -264.28,-395.41 0,-38.09 5.01,-75.88 14.89,-112.29 l -19.31,-5.24"
            id="path976" />
         <path d="m 3895.25,1213.27 -1.67,9.86 431.51,73.02 1.67,-9.86 -431.51,-73.02" id="path978" />
         <path d="m 3557.12,1891.51 -106.78,-227.08 -130.52,227.08 z" id="path980" />
         <g id="g982" transform="scale(10)">
            <text xml:space="preserve" transform="matrix(1,0,0,-1,178.134,467.06)"
               style="font-variant:normal;font-weight:normal;font-size:12px;font-family:AbhayaLibre;-inkscape-font-specification:AbhayaLibre-Regular;writing-mode:lr-tb;fill:#283e4b;fill-opacity:1;fill-rule:nonzero;stroke:none"
               id="text986">
               <tspan
                  x="0 6.7622075 10.570804 18.410646 25.137197 32.320816 40.453606 46.969254 49.254414 56.156757 59.965328 67.395042 73.910667 76.195824 83.508324 91.770042 97.547386 103.32472 109.84035 117.15285 123.87941 127.68801 135.94972"
                  y="0" sodipodi:role="line" id="tspan984">VINTAGE BIKE COLLECTION</tspan>
            </text>
         </g>
         <path
            d="m 3285.45,4618.96 h -924.16 v 5 h 922.04 l 79.33,82.1 -79.29,77.74 h -922.08 v 5 h 924.12 l 84.29,-82.64 -84.25,-87.2"
            id="path988" />
         <path d="m 3284.39,4685.84 -20.27,20.27 20.27,20.27 20.26,-20.27 -20.26,-20.27" id="path990" />
         <path
            d="m 2361.29,4618.96 h -646.74 l -84.25,87.2 84.29,82.64 h 646.7 v -5 h -644.66 l -79.29,-77.74 79.33,-82.1 h 644.62 v -5"
            id="path992" />
         <path d="m 1715.61,4685.84 20.27,20.27 -20.27,20.27 -20.26,-20.27 20.26,-20.27" id="path994" />
         <path
            d="m 1771.2,392.68 c 0,-4.399 0.68,-8.129 2.05,-11.219 1.36,-3.09 3.23,-5.41 5.61,-6.969 2.37,-1.562 4.96,-2.363 7.77,-2.363 2.85,0 5.45,0.75 7.81,2.242 2.35,1.481 4.23,3.758 5.64,6.82 1.4,3.071 2.1,6.911 2.1,11.489 0,4.32 -0.7,8.031 -2.1,11.14 -1.41,3.102 -3.3,5.469 -5.7,7.121 -2.4,1.641 -5.02,2.45 -7.86,2.45 -2.97,0 -5.62,-0.84 -7.96,-2.512 -2.34,-1.68 -4.14,-4.09 -5.43,-7.238 -1.29,-3.149 -1.93,-6.801 -1.93,-10.961 z m 31.88,-23.801 v 1.613 c -2.18,-2.492 -4.33,-4.531 -6.44,-6.082 -2.12,-1.578 -4.42,-2.762 -6.89,-3.57 -2.47,-0.828 -5.17,-1.219 -8.1,-1.219 -3.88,0 -7.48,0.82 -10.78,2.461 -3.3,1.637 -6.16,3.988 -8.57,7.039 -2.42,3.039 -4.25,6.621 -5.5,10.738 -1.24,4.121 -1.87,8.571 -1.87,13.36 0,10.133 2.48,18.031 7.42,23.691 4.95,5.649 11.46,8.481 19.54,8.481 4.66,0 8.6,-0.801 11.81,-2.399 3.2,-1.601 6.33,-4.082 9.38,-7.39 v 23.918 c 0,3.332 0.66,5.832 1.99,7.539 1.32,1.703 3.21,2.55 5.66,2.55 2.46,0 4.34,-0.777 5.67,-2.339 1.33,-1.579 1.99,-3.872 1.99,-6.918 v -71.473 c 0,-3.09 -0.71,-5.399 -2.14,-6.949 -1.42,-1.539 -3.26,-2.309 -5.52,-2.309 -2.21,0 -4.04,0.801 -5.49,2.391 -1.44,1.617 -2.16,3.898 -2.16,6.867"
            id="path996" />
         <path
            d="m 1842.84,397.781 h 29.39 c -0.39,5.539 -1.9,9.688 -4.49,12.438 -2.59,2.761 -6,4.133 -10.23,4.133 -4.04,0 -7.36,-1.403 -9.95,-4.18 -2.59,-2.793 -4.16,-6.922 -4.72,-12.391 z m 31.7,-9.199 h -31.7 c 0.04,-3.684 0.78,-6.922 2.23,-9.73 1.44,-2.813 3.36,-4.93 5.76,-6.352 2.39,-1.43 5.03,-2.141 7.92,-2.141 1.94,0 3.71,0.223 5.31,0.68 1.61,0.461 3.16,1.172 4.67,2.141 1.5,0.968 2.88,2.011 4.15,3.121 1.26,1.109 2.9,2.621 4.93,4.508 0.83,0.711 2.02,1.082 3.56,1.082 1.66,0 3.01,-0.469 4.03,-1.379 1.03,-0.922 1.55,-2.192 1.55,-3.864 0,-1.457 -0.58,-3.156 -1.72,-5.128 -1.16,-1.961 -2.89,-3.84 -5.2,-5.641 -2.32,-1.797 -5.22,-3.289 -8.73,-4.477 -3.49,-1.191 -7.52,-1.781 -12.08,-1.781 -10.4,0 -18.5,2.969 -24.27,8.899 -5.78,5.929 -8.67,13.992 -8.67,24.16 0,4.8 0.71,9.242 2.14,13.332 1.42,4.097 3.5,7.597 6.23,10.527 2.73,2.93 6.09,5.18 10.09,6.742 4,1.559 8.43,2.348 13.3,2.348 6.33,0 11.76,-1.328 16.29,-4.008 4.53,-2.672 7.93,-6.129 10.18,-10.351 2.25,-4.239 3.39,-8.559 3.39,-12.938 0,-4.09 -1.17,-6.73 -3.5,-7.934 -2.33,-1.207 -5.62,-1.816 -9.86,-1.816"
            id="path998" />
         <path
            d="m 1948.38,380.809 c 0,-4.457 -1.08,-8.297 -3.26,-11.477 -2.18,-3.191 -5.39,-5.613 -9.65,-7.25 -4.25,-1.641 -9.43,-2.461 -15.52,-2.461 -5.82,0 -10.81,0.891 -14.96,2.68 -4.16,1.769 -7.23,4 -9.2,6.66 -1.98,2.687 -2.97,5.359 -2.97,8.059 0,1.781 0.63,3.289 1.9,4.562 1.27,1.258 2.87,1.887 4.81,1.887 1.7,0 3,-0.41 3.91,-1.239 0.92,-0.828 1.79,-2 2.61,-3.492 1.67,-2.906 3.66,-5.039 5.98,-6.476 2.31,-1.422 5.46,-2.141 9.46,-2.141 3.25,0 5.91,0.731 7.99,2.168 2.07,1.461 3.11,3.102 3.11,4.961 0,2.859 -1.07,4.922 -3.23,6.219 -2.16,1.312 -5.71,2.57 -10.66,3.75 -5.58,1.383 -10.12,2.851 -13.62,4.371 -3.51,1.519 -6.31,3.531 -8.4,6.019 -2.1,2.493 -3.15,5.571 -3.15,9.2 0,3.242 0.97,6.32 2.91,9.211 1.94,2.882 4.8,5.191 8.58,6.91 3.78,1.718 8.34,2.59 13.68,2.59 4.2,0 7.97,-0.438 11.31,-1.321 3.34,-0.859 6.14,-2.039 8.37,-3.508 2.24,-1.449 3.94,-3.07 5.1,-4.851 1.17,-1.789 1.75,-3.52 1.75,-5.231 0,-1.847 -0.62,-3.379 -1.86,-4.578 -1.25,-1.172 -3.02,-1.781 -5.32,-1.781 -1.66,0 -3.08,0.48 -4.24,1.441 -1.17,0.938 -2.5,2.368 -4.01,4.258 -1.23,1.59 -2.66,2.86 -4.33,3.813 -1.66,0.949 -3.92,1.418 -6.77,1.418 -2.93,0 -5.36,-0.61 -7.3,-1.871 -1.94,-1.25 -2.91,-2.797 -2.91,-4.649 0,-1.711 0.71,-3.101 2.13,-4.191 1.43,-1.098 3.35,-2 5.77,-2.707 2.41,-0.711 5.73,-1.571 9.97,-2.602 5.02,-1.23 9.13,-2.699 12.32,-4.39 3.18,-1.7 5.59,-3.711 7.24,-6.032 1.64,-2.316 2.46,-4.957 2.46,-7.929"
            id="path1000" />
         <path
            d="m 1972.95,416.309 v -46.84 c 0,-3.239 -0.77,-5.699 -2.31,-7.36 -1.55,-1.66 -3.5,-2.488 -5.88,-2.488 -2.38,0 -4.31,0.84 -5.79,2.551 -1.49,1.699 -2.22,4.137 -2.22,7.297 v 46.371 c 0,3.191 0.73,5.609 2.22,7.23 1.48,1.629 3.41,2.45 5.79,2.45 2.38,0 4.33,-0.821 5.88,-2.45 1.54,-1.621 2.31,-3.879 2.31,-6.761 z m -8.01,16.742 c -2.26,0 -4.19,0.687 -5.79,2.07 -1.6,1.379 -2.4,3.348 -2.4,5.891 0,2.289 0.82,4.168 2.46,5.66 1.64,1.488 3.55,2.23 5.73,2.23 2.1,0 3.95,-0.672 5.58,-2.023 1.62,-1.34 2.43,-3.297 2.43,-5.867 0,-2.512 -0.79,-4.453 -2.38,-5.852 -1.58,-1.398 -3.46,-2.109 -5.63,-2.109"
            id="path1002" />
         <path
            d="m 1996.99,393.09 c 0,-6.559 1.43,-11.531 4.3,-14.891 2.87,-3.367 6.58,-5.051 11.13,-5.051 2.69,0 5.23,0.731 7.63,2.172 2.39,1.442 4.34,3.629 5.85,6.532 1.5,2.91 2.25,6.429 2.25,10.597 0,6.602 -1.45,11.75 -4.36,15.43 -2.91,3.672 -6.74,5.512 -11.49,5.512 -4.63,0 -8.34,-1.75 -11.13,-5.282 -2.79,-3.519 -4.18,-8.519 -4.18,-15.019 z m 46.96,20.551 V 366.57 c 0,-5.39 -0.58,-10.019 -1.73,-13.91 -1.14,-3.871 -2.99,-7.078 -5.52,-9.601 -2.53,-2.528 -5.85,-4.418 -9.94,-5.637 -4.1,-1.242 -9.19,-1.852 -15.29,-1.852 -5.58,0 -10.57,0.789 -14.96,2.352 -4.39,1.57 -7.77,3.59 -10.15,6.047 -2.37,2.48 -3.56,5.019 -3.56,7.633 0,1.98 0.67,3.597 2.02,4.839 1.34,1.25 2.97,1.879 4.86,1.879 2.38,0 4.46,-1.05 6.24,-3.148 0.86,-1.07 1.76,-2.152 2.7,-3.242 0.93,-1.098 1.96,-2.02 3.08,-2.789 1.13,-0.77 2.49,-1.352 4.07,-1.719 1.58,-0.371 3.41,-0.57 5.46,-0.57 4.2,0 7.45,0.589 9.77,1.757 2.32,1.161 3.94,2.801 4.87,4.903 0.93,2.078 1.47,4.328 1.63,6.726 0.16,2.403 0.28,6.242 0.35,11.551 -2.49,-3.488 -5.36,-6.141 -8.63,-7.957 -3.27,-1.82 -7.16,-2.73 -11.67,-2.73 -5.42,0 -10.16,1.386 -14.22,4.16 -4.05,2.769 -7.17,6.636 -9.34,11.636 -2.18,4.993 -3.26,10.743 -3.26,17.274 0,4.859 0.66,9.258 1.98,13.168 1.33,3.93 3.22,7.23 5.67,9.922 2.45,2.687 5.28,4.718 8.49,6.078 3.2,1.371 6.72,2.051 10.57,2.051 4.58,0 8.56,-0.891 11.93,-2.629 3.36,-1.77 6.49,-4.532 9.38,-8.293 v 2.203 c 0,2.797 0.69,4.976 2.07,6.527 1.39,1.531 3.17,2.321 5.35,2.321 3.12,0 5.2,-1.028 6.23,-3.071 1.03,-2.039 1.55,-4.98 1.55,-8.808"
            id="path1004" />
         <path
            d="m 2069.7,416.539 v -1.949 c 2.84,3.762 5.96,6.519 9.35,8.281 3.38,1.75 7.27,2.649 11.66,2.649 4.28,0 8.09,-0.938 11.46,-2.801 3.36,-1.867 5.88,-4.489 7.54,-7.887 1.07,-1.992 1.76,-4.121 2.07,-6.422 0.32,-2.289 0.49,-5.219 0.49,-8.789 v -30.152 c 0,-3.239 -0.75,-5.699 -2.23,-7.36 -1.49,-1.66 -3.42,-2.488 -5.79,-2.488 -2.42,0 -4.37,0.84 -5.88,2.551 -1.51,1.699 -2.25,4.137 -2.25,7.297 v 27.019 c 0,5.332 -0.75,9.422 -2.23,12.25 -1.49,2.821 -4.44,4.254 -8.88,4.254 -2.88,0 -5.52,-0.871 -7.89,-2.594 -2.38,-1.718 -4.12,-4.089 -5.23,-7.089 -0.79,-2.418 -1.18,-6.918 -1.18,-13.539 v -20.301 c 0,-3.278 -0.77,-5.75 -2.29,-7.387 -1.52,-1.641 -3.49,-2.461 -5.9,-2.461 -2.34,0 -4.25,0.84 -5.76,2.551 -1.5,1.699 -2.26,4.137 -2.26,7.297 v 46.84 c 0,3.089 0.67,5.402 2.02,6.921 1.35,1.52 3.19,2.29 5.52,2.29 1.43,0 2.71,-0.348 3.86,-1.02 1.15,-0.68 2.07,-1.68 2.76,-3.02 0.7,-1.351 1.04,-3 1.04,-4.941"
            id="path1006" />
         <path
            d="m 2136.59,397.781 h 29.39 c -0.4,5.539 -1.89,9.688 -4.48,12.438 -2.6,2.761 -6.01,4.133 -10.24,4.133 -4.04,0 -7.36,-1.403 -9.95,-4.18 -2.59,-2.793 -4.16,-6.922 -4.72,-12.391 z m 31.7,-9.199 h -31.7 c 0.05,-3.684 0.78,-6.922 2.23,-9.73 1.45,-2.813 3.36,-4.93 5.76,-6.352 2.39,-1.43 5.03,-2.141 7.92,-2.141 1.94,0 3.71,0.223 5.32,0.68 1.6,0.461 3.15,1.172 4.66,2.141 1.5,0.968 2.88,2.011 4.16,3.121 1.26,1.109 2.9,2.621 4.92,4.508 0.83,0.711 2.02,1.082 3.56,1.082 1.66,0 3.01,-0.469 4.04,-1.379 1.03,-0.922 1.54,-2.192 1.54,-3.864 0,-1.457 -0.57,-3.156 -1.72,-5.128 -1.15,-1.961 -2.88,-3.84 -5.2,-5.641 -2.32,-1.797 -5.22,-3.289 -8.72,-4.477 -3.5,-1.191 -7.53,-1.781 -12.08,-1.781 -10.41,0 -18.5,2.969 -24.29,8.899 -5.77,5.929 -8.66,13.992 -8.66,24.16 0,4.8 0.71,9.242 2.14,13.332 1.42,4.097 3.5,7.597 6.23,10.527 2.73,2.93 6.1,5.18 10.09,6.742 4,1.559 8.44,2.348 13.3,2.348 6.33,0 11.76,-1.328 16.29,-4.008 4.53,-2.672 7.93,-6.129 10.19,-10.351 2.25,-4.239 3.38,-8.559 3.38,-12.938 0,-4.09 -1.16,-6.73 -3.5,-7.934 -2.33,-1.207 -5.62,-1.816 -9.86,-1.816"
            id="path1008" />
         <path
            d="m 2202.48,392.68 c 0,-4.399 0.68,-8.129 2.04,-11.219 1.37,-3.09 3.24,-5.41 5.62,-6.969 2.37,-1.562 4.96,-2.363 7.77,-2.363 2.85,0 5.46,0.75 7.81,2.242 2.35,1.481 4.23,3.758 5.63,6.82 1.41,3.071 2.11,6.911 2.11,11.489 0,4.32 -0.7,8.031 -2.11,11.14 -1.4,3.102 -3.3,5.469 -5.69,7.121 -2.4,1.641 -5.02,2.45 -7.87,2.45 -2.96,0 -5.62,-0.84 -7.95,-2.512 -2.33,-1.68 -4.15,-4.09 -5.44,-7.238 -1.28,-3.149 -1.92,-6.801 -1.92,-10.961 z m 31.87,-23.801 v 1.613 c -2.17,-2.492 -4.32,-4.531 -6.44,-6.082 -2.12,-1.578 -4.41,-2.762 -6.88,-3.57 -2.47,-0.828 -5.17,-1.219 -8.1,-1.219 -3.89,0 -7.48,0.82 -10.78,2.461 -3.3,1.637 -6.16,3.988 -8.58,7.039 -2.41,3.039 -4.24,6.621 -5.49,10.738 -1.24,4.121 -1.87,8.571 -1.87,13.36 0,10.133 2.48,18.031 7.42,23.691 4.95,5.649 11.46,8.481 19.53,8.481 4.67,0 8.61,-0.801 11.82,-2.399 3.2,-1.601 6.33,-4.082 9.37,-7.39 v 23.918 c 0,3.332 0.67,5.832 1.99,7.539 1.33,1.703 3.22,2.55 5.67,2.55 2.46,0 4.34,-0.777 5.67,-2.339 1.33,-1.579 1.99,-3.872 1.99,-6.918 v -71.473 c 0,-3.09 -0.71,-5.399 -2.13,-6.949 -1.43,-1.539 -3.27,-2.309 -5.53,-2.309 -2.21,0 -4.04,0.801 -5.49,2.391 -1.44,1.617 -2.17,3.898 -2.17,6.867"
            id="path1010" />
         <path
            d="m 2301.36,392.199 c 0,-6.437 1.48,-11.398 4.42,-14.847 2.95,-3.473 6.82,-5.223 11.61,-5.223 4.07,0 7.59,1.773 10.53,5.332 2.95,3.539 4.43,8.609 4.43,15.219 0,4.269 -0.61,7.961 -1.84,11.05 -1.23,3.079 -2.97,5.469 -5.22,7.149 -2.26,1.672 -4.89,2.512 -7.9,2.512 -3.09,0 -5.84,-0.84 -8.25,-2.512 -2.42,-1.68 -4.31,-4.109 -5.7,-7.297 -1.38,-3.191 -2.08,-6.98 -2.08,-11.383 z m -0.77,48.153 v -24.75 c 3.05,3.168 6.15,5.589 9.32,7.269 3.16,1.68 7.09,2.52 11.76,2.52 5.38,0 10.09,-1.282 14.16,-3.821 4.05,-2.558 7.19,-6.261 9.43,-11.109 2.24,-4.84 3.36,-10.59 3.36,-17.242 0,-4.91 -0.63,-9.399 -1.87,-13.5 -1.25,-4.11 -3.06,-7.66 -5.43,-10.66 -2.38,-3 -5.26,-5.34 -8.64,-6.977 -3.39,-1.641 -7.12,-2.461 -11.19,-2.461 -2.5,0 -4.84,0.301 -7.04,0.891 -2.2,0.59 -4.07,1.367 -5.61,2.347 -1.54,0.961 -2.85,1.961 -3.94,2.993 -1.09,1.019 -2.53,2.57 -4.31,4.64 v -1.613 c 0,-3.039 -0.73,-5.348 -2.2,-6.93 -1.46,-1.558 -3.32,-2.328 -5.58,-2.328 -2.29,0 -4.12,0.77 -5.49,2.328 -1.36,1.582 -2.04,3.891 -2.04,6.93 v 70.762 c 0,3.281 0.66,5.769 1.98,7.449 1.33,1.68 3.18,2.519 5.55,2.519 2.5,0 4.42,-0.8 5.76,-2.398 1.35,-1.609 2.02,-3.879 2.02,-6.859"
            id="path1012" />
         <path
            d="m 2369.63,357.602 1.48,3.617 -19.95,50.222 c -1.22,2.879 -1.84,4.989 -1.84,6.297 0,1.383 0.36,2.66 1.07,3.852 0.72,1.191 1.69,2.14 2.94,2.851 1.25,0.719 2.54,1.079 3.89,1.079 2.33,0 4.09,-0.75 5.28,-2.239 1.19,-1.48 2.24,-3.601 3.15,-6.371 l 13.71,-39.89 13,37.089 c 1.03,3.012 1.96,5.36 2.79,7.071 0.83,1.699 1.71,2.851 2.64,3.429 0.93,0.602 2.25,0.911 3.95,0.911 1.23,0 2.41,-0.329 3.53,-0.989 1.13,-0.652 2,-1.531 2.61,-2.64 0.61,-1.11 0.93,-2.27 0.93,-3.5 -0.17,-0.75 -0.42,-1.821 -0.78,-3.211 -0.36,-1.379 -0.79,-2.801 -1.3,-4.211 l -21.13,-55.328 c -1.83,-4.871 -3.61,-8.68 -5.35,-11.45 -1.74,-2.769 -4.04,-4.902 -6.92,-6.382 -2.87,-1.489 -6.73,-2.239 -11.6,-2.239 -4.75,0 -8.31,0.52 -10.68,1.539 -2.38,1.039 -3.56,2.922 -3.56,5.653 0,1.859 0.56,3.297 1.69,4.297 1.12,1.011 2.8,1.531 5.01,1.531 0.87,0 1.73,-0.121 2.56,-0.371 1.02,-0.227 1.91,-0.348 2.66,-0.348 1.86,0 3.33,0.27 4.4,0.828 1.07,0.551 2.02,1.512 2.88,2.883 0.85,1.348 1.83,3.367 2.94,6.02"
            id="path1014" />
         <path
            d="m 2604.39,424.109 h 3.87 v 4.86 c 0,5.09 0.62,9.113 1.92,12.113 1.27,2.988 3.47,5.156 6.54,6.527 3.07,1.36 7.26,2.039 12.6,2.039 9.5,0 14.21,-2.296 14.21,-6.957 0,-1.492 -0.5,-2.781 -1.5,-3.839 -0.97,-1.071 -2.15,-1.602 -3.49,-1.602 -0.63,0 -1.74,0.109 -3.3,0.359 -1.48,0.211 -2.82,0.36 -3.89,0.36 -2.92,0 -4.79,-0.879 -5.66,-2.598 -0.79,-1.723 -1.22,-4.18 -1.22,-7.402 v -3.86 h 3.96 c 6.19,0 9.25,-1.847 9.25,-5.597 0,-2.614 -0.79,-4.313 -2.45,-5.032 -1.64,-0.71 -3.9,-1.058 -6.8,-1.058 h -3.96 v -42.953 c 0,-3.188 -0.75,-5.617 -2.3,-7.297 -1.52,-1.711 -3.47,-2.543 -5.9,-2.543 -2.29,0 -4.19,0.832 -5.74,2.543 -1.52,1.68 -2.27,4.109 -2.27,7.297 v 42.953 h -4.47 c -2.42,0 -4.26,0.519 -5.57,1.629 -1.31,1.07 -1.97,2.488 -1.97,4.238 0,3.891 2.71,5.82 8.14,5.82"
            id="path1016" />
         <path
            d="m 2657.46,383.02 v -13.551 c 0,-3.27 -0.83,-5.75 -2.35,-7.367 -1.54,-1.661 -3.49,-2.473 -5.86,-2.473 -2.38,0 -4.29,0.82 -5.78,2.512 -1.48,1.64 -2.26,4.097 -2.26,7.328 v 45.152 c 0,7.277 2.62,10.918 7.88,10.918 2.71,0 4.64,-0.84 5.84,-2.547 1.18,-1.711 1.84,-4.211 1.98,-7.543 1.93,3.332 3.9,5.832 5.93,7.543 2.08,1.707 4.76,2.547 8.18,2.547 3.43,0 6.7,-0.84 9.91,-2.547 3.22,-1.711 4.82,-3.98 4.82,-6.781 0,-1.961 -0.69,-3.621 -2.04,-4.879 -1.38,-1.301 -2.84,-1.953 -4.41,-1.953 -0.63,0 -2.07,0.391 -4.33,1.121 -2.28,0.711 -4.31,1.09 -6.01,1.09 -2.38,0 -4.34,-0.649 -5.83,-1.871 -1.51,-1.278 -2.69,-3.098 -3.52,-5.539 -0.81,-2.469 -1.37,-5.41 -1.71,-8.782 -0.31,-3.378 -0.44,-7.519 -0.44,-12.378"
            id="path1018" />
         <path
            d="m 2700.24,397.82 h 29.38 c -0.39,5.532 -1.85,9.68 -4.45,12.41 -2.61,2.762 -5.99,4.129 -10.25,4.129 -4.05,0 -7.37,-1.379 -9.95,-4.187 -2.59,-2.781 -4.18,-6.902 -4.73,-12.352 m 31.72,-9.218 h -31.72 c 0.06,-3.672 0.78,-6.942 2.22,-9.743 1.47,-2.789 3.37,-4.918 5.78,-6.359 2.4,-1.418 5.03,-2.121 7.93,-2.121 1.94,0 3.7,0.203 5.31,0.691 1.59,0.442 3.15,1.16 4.65,2.141 1.52,0.949 2.88,1.988 4.15,3.121 1.27,1.09 2.92,2.598 4.95,4.5 0.84,0.699 2.02,1.078 3.55,1.078 1.67,0 3,-0.461 4.05,-1.39 1.04,-0.911 1.53,-2.18 1.53,-3.86 0,-1.461 -0.56,-3.168 -1.67,-5.109 -1.18,-1.992 -2.9,-3.86 -5.23,-5.672 -2.34,-1.777 -5.25,-3.289 -8.74,-4.457 -3.49,-1.192 -7.53,-1.793 -12.07,-1.793 -10.44,0 -18.52,2.961 -24.29,8.891 -5.78,5.949 -8.69,14.011 -8.69,24.171 0,4.797 0.73,9.239 2.17,13.34 1.4,4.121 3.48,7.61 6.24,10.551 2.72,2.938 6.06,5.18 10.08,6.738 3.98,1.559 8.41,2.34 13.29,2.34 6.33,0 11.76,-1.34 16.3,-4.039 4.52,-2.633 7.96,-6.101 10.18,-10.34 2.26,-4.25 3.38,-8.543 3.38,-12.961 0,-4.05 -1.17,-6.691 -3.5,-7.91 -2.33,-1.211 -5.62,-1.808 -9.85,-1.808"
            id="path1020" />
         <path
            d="m 2767.67,397.82 h 29.39 c -0.41,5.532 -1.91,9.68 -4.47,12.41 -2.64,2.762 -6.02,4.129 -10.27,4.129 -4.04,0 -7.35,-1.379 -9.96,-4.187 -2.57,-2.781 -4.16,-6.902 -4.69,-12.352 m 31.71,-9.218 h -31.71 c 0.04,-3.672 0.79,-6.942 2.21,-9.743 1.46,-2.789 3.37,-4.918 5.77,-6.359 2.39,-1.418 5.02,-2.121 7.94,-2.121 1.92,0 3.7,0.203 5.28,0.691 1.62,0.442 3.16,1.16 4.68,2.141 1.52,0.949 2.88,1.988 4.15,3.121 1.25,1.09 2.91,2.598 4.93,4.5 0.85,0.699 2.04,1.078 3.56,1.078 1.67,0 3.01,-0.461 4.06,-1.39 1.03,-0.911 1.5,-2.18 1.5,-3.86 0,-1.461 -0.55,-3.168 -1.71,-5.109 -1.11,-1.992 -2.84,-3.86 -5.18,-5.672 -2.32,-1.777 -5.25,-3.289 -8.73,-4.457 -3.48,-1.192 -7.55,-1.793 -12.09,-1.793 -10.42,0 -18.49,2.961 -24.29,8.891 -5.77,5.949 -8.68,14.011 -8.68,24.171 0,4.797 0.72,9.239 2.18,13.34 1.41,4.121 3.49,7.61 6.22,10.551 2.72,2.938 6.08,5.18 10.08,6.738 4,1.559 8.45,2.34 13.31,2.34 6.31,0 11.74,-1.34 16.33,-4.039 4.51,-2.633 7.91,-6.101 10.13,-10.34 2.25,-4.25 3.41,-8.543 3.41,-12.961 0,-4.05 -1.2,-6.691 -3.5,-7.91 -2.35,-1.211 -5.63,-1.808 -9.85,-1.808"
            id="path1022" />
         <path
            d="m 2866.65,392.871 c 0,4.289 -0.66,7.961 -1.97,11.031 -1.3,3.067 -3.11,5.418 -5.4,7.039 -2.3,1.649 -4.9,2.481 -7.71,2.481 -4.46,0 -8.24,-1.774 -11.3,-5.274 -3.08,-3.539 -4.63,-8.718 -4.63,-15.578 0,-6.422 1.53,-11.461 4.6,-15.039 3.04,-3.59 6.79,-5.371 11.33,-5.371 2.68,0 5.19,0.789 7.49,2.332 2.32,1.578 4.15,3.918 5.51,7.039 1.38,3.141 2.08,6.93 2.08,11.34 m -31.78,23.551 v -1.942 c 3.04,3.762 6.22,6.52 9.54,8.282 3.23,1.777 6.98,2.668 11.13,2.668 4.97,0 9.59,-1.309 13.79,-3.86 4.2,-2.582 7.5,-6.34 9.94,-11.289 2.43,-4.972 3.66,-10.812 3.66,-17.59 0,-4.972 -0.71,-9.57 -2.1,-13.761 -1.4,-4.168 -3.35,-7.66 -5.81,-10.489 -2.45,-2.812 -5.34,-5.011 -8.68,-6.531 -3.39,-1.519 -6.94,-2.281 -10.8,-2.281 -4.61,0 -8.52,0.93 -11.66,2.801 -3.13,1.82 -6.14,4.582 -9.01,8.152 v -24.32 c 0,-7.102 -2.6,-10.692 -7.77,-10.692 -3.07,0 -5.06,0.918 -6.07,2.75 -0.95,1.871 -1.46,4.52 -1.46,8.071 v 69.961 c 0,3.089 0.67,5.367 2,6.918 1.34,1.492 3.2,2.269 5.53,2.269 2.3,0 4.16,-0.777 5.6,-2.328 1.47,-1.59 2.17,-3.82 2.17,-6.789"
            id="path1024" />
         <path
            d="m 2907.27,416.352 v -46.891 c 0,-3.223 -0.77,-5.68 -2.3,-7.32 -1.57,-1.692 -3.51,-2.512 -5.89,-2.512 -2.38,0 -4.28,0.832 -5.8,2.543 -1.46,1.719 -2.22,4.148 -2.22,7.289 v 46.418 c 0,3.191 0.76,5.601 2.22,7.223 1.52,1.648 3.42,2.437 5.8,2.437 2.38,0 4.32,-0.789 5.89,-2.437 1.53,-1.622 2.3,-3.903 2.3,-6.75 m -8.02,16.73 c -2.27,0 -4.18,0.719 -5.77,2.098 -1.62,1.402 -2.42,3.32 -2.42,5.851 0,2.309 0.82,4.188 2.48,5.688 1.64,1.461 3.54,2.222 5.71,2.222 2.13,0 3.97,-0.66 5.58,-1.992 1.63,-1.367 2.44,-3.34 2.44,-5.918 0,-2.492 -0.79,-4.441 -2.35,-5.851 -1.59,-1.379 -3.47,-2.098 -5.67,-2.098"
            id="path1026" />
         <path
            d="m 2959.52,367.031 -14.27,23.539 -8.8,-8.3 v -12.918 c 0,-3.114 -0.83,-5.5 -2.48,-7.18 -1.61,-1.711 -3.54,-2.543 -5.66,-2.543 -2.49,0 -4.47,0.82 -5.89,2.512 -1.41,1.64 -2.15,4.097 -2.15,7.328 v 69.14 c 0,3.59 0.72,6.332 2.08,8.223 1.39,1.898 3.4,2.816 5.96,2.816 2.49,0 4.45,-0.859 5.93,-2.558 1.46,-1.699 2.21,-4.219 2.21,-7.52 v -39.332 l 18.22,19.141 c 2.26,2.351 3.96,4 5.17,4.871 1.18,0.859 2.62,1.289 4.31,1.289 2.03,0 3.71,-0.648 5.1,-1.93 1.32,-1.277 2,-2.898 2,-4.828 0,-2.371 -2.21,-5.562 -6.59,-9.511 l -8.61,-7.891 16.62,-26.141 c 1.21,-1.957 2.12,-3.398 2.65,-4.406 0.52,-1 0.81,-2 0.81,-2.891 0,-2.582 -0.72,-4.589 -2.13,-6.101 -1.41,-1.469 -3.27,-2.211 -5.53,-2.211 -1.98,0 -3.53,0.512 -4.59,1.601 -1.06,1.079 -2.54,3.02 -4.36,5.801"
            id="path1028" />
         <path
            d="m 2994.75,359.629 c -2.45,0 -4.55,0.793 -6.34,2.383 -1.78,1.558 -2.68,3.789 -2.68,6.66 0,2.398 0.86,4.488 2.56,6.207 1.72,1.75 3.8,2.633 6.3,2.633 2.49,0 4.6,-0.883 6.4,-2.582 1.74,-1.719 2.63,-3.828 2.63,-6.258 0,-2.832 -0.89,-5.063 -2.63,-6.633 -1.8,-1.617 -3.87,-2.41 -6.24,-2.41"
            id="path1030" />
         <path
            d="m 3075.36,379.691 c 0,-2 -0.61,-4.171 -1.81,-6.461 -1.2,-2.32 -3.06,-4.492 -5.55,-6.558 -2.46,-2.082 -5.56,-3.762 -9.33,-5.024 -3.76,-1.269 -8.01,-1.918 -12.7,-1.918 -10.03,0 -17.86,2.93 -23.49,8.75 -5.59,5.852 -8.41,13.692 -8.41,23.5 0,6.68 1.28,12.54 3.87,17.649 2.55,5.09 6.28,9.051 11.14,11.851 4.87,2.79 10.73,4.18 17.46,4.18 4.21,0 8.05,-0.609 11.58,-1.84 3.5,-1.218 6.45,-2.82 8.91,-4.75 2.41,-1.961 4.28,-4.019 5.55,-6.199 1.3,-2.199 1.93,-4.25 1.93,-6.172 0,-1.918 -0.71,-3.57 -2.15,-4.91 -1.46,-1.348 -3.22,-2.027 -5.24,-2.027 -1.36,0 -2.49,0.347 -3.38,1.039 -0.9,0.687 -1.9,1.801 -2.99,3.379 -1.99,2.992 -4.04,5.261 -6.22,6.75 -2.15,1.511 -4.89,2.261 -8.22,2.261 -4.76,0 -8.64,-1.859 -11.58,-5.609 -2.92,-3.723 -4.4,-8.871 -4.4,-15.34 0,-3.051 0.39,-5.871 1.15,-8.422 0.73,-2.539 1.82,-4.73 3.25,-6.519 1.44,-1.801 3.15,-3.16 5.16,-4.09 2.03,-0.969 4.26,-1.422 6.65,-1.422 3.26,0 6.05,0.762 8.35,2.262 2.36,1.5 4.4,3.801 6.17,6.89 0.99,1.809 2.05,3.231 3.18,4.27 1.14,1.019 2.56,1.559 4.23,1.559 1.97,0 3.62,-0.77 4.9,-2.27 1.32,-1.5 1.99,-3.109 1.99,-4.809"
            id="path1032" />
         <path
            d="m 3129.03,392.57 c 0,6.621 -1.47,11.75 -4.36,15.43 -2.89,3.719 -6.81,5.551 -11.72,5.551 -3.17,0 -5.97,-0.832 -8.39,-2.461 -2.41,-1.641 -4.26,-4.059 -5.56,-7.281 -1.31,-3.207 -1.97,-6.957 -1.97,-11.239 0,-4.238 0.64,-7.922 1.93,-11.082 1.31,-3.187 3.14,-5.609 5.54,-7.289 2.41,-1.66 5.21,-2.527 8.45,-2.527 4.91,0 8.83,1.859 11.72,5.578 2.89,3.691 4.36,8.809 4.36,15.32 m 16.27,0 c 0,-4.808 -0.76,-9.281 -2.22,-13.371 -1.54,-4.07 -3.7,-7.578 -6.56,-10.48 -2.84,-2.93 -6.26,-5.18 -10.2,-6.75 -4,-1.547 -8.44,-2.348 -13.37,-2.348 -4.91,0 -9.33,0.801 -13.26,2.391 -3.89,1.558 -7.31,3.84 -10.15,6.769 -2.88,2.981 -5.06,6.457 -6.58,10.469 -1.43,4.031 -2.19,8.469 -2.19,13.32 0,4.918 0.77,9.41 2.24,13.489 1.51,4.093 3.68,7.582 6.49,10.461 2.82,2.878 6.21,5.101 10.19,6.691 4.03,1.551 8.44,2.328 13.26,2.328 4.91,0 9.36,-0.777 13.37,-2.379 3.99,-1.57 7.39,-3.851 10.27,-6.75 2.86,-2.969 5.02,-6.43 6.5,-10.449 1.46,-4.063 2.21,-8.5 2.21,-13.391"
            id="path1034" />
         <path
      
      
      </g>
   </g>
</svg>