<svg viewBox="0 0 34 34" fill="none" xmlns="http://www.w3.org/2000/svg">
    <path
        d="M30 17C30 8.71573 23.2843 2 15 2C6.71573 2 0 8.71573 0 17C0 25.2843 6.71573 32 15 32C23.2843 32 30 25.2843 30 17Z"
        fill="#FC3F1D"></path>
    <path
        d="M17.114 26.015H20.2478V8.01501H15.6894C11.1053 8.01501 8.69668 10.3718 8.69668 13.8423C8.69668 16.6136 10.0176 18.2452 12.3743 19.9287L8.28229 26.015H11.6751L16.2334 19.2035L14.6535 18.1416C12.737 16.8466 11.8046 15.8366 11.8046 13.6611C11.8046 11.7445 13.1513 10.4495 15.7154 10.4495H17.114V26.015Z"
        fill="white"></path>
</svg>